<svg width="78" height="79" viewBox="0 0 78 79" fill="none" xmlns="http://www.w3.org/2000/svg">
<path d="M11.4232 45.7062C11.4232 45.7062 9.98371 38.5092 17.5968 29.7931C25.2106 21.0773 30.923 17.9079 37.0925 16.2569C37.0925 16.2569 37.0873 16.2601 37.0818 16.2633C37.0896 16.2612 37.0974 16.259 37.1051 16.2569C37.1051 16.2569 32.2587 19.0966 32.2587 23.388C32.2587 24.6337 32.4561 25.4896 32.7296 26.0613C33.0926 26.8209 33.6674 27.0792 34.1834 27.0817C34.6183 27.0842 34.8728 26.9044 35.423 26.6894V49.9314C35.423 49.9314 35.4826 50.3061 35.8169 50.7501C36.2984 51.3886 37.0552 52.1678 38.4769 52.1757C40.9023 52.1601 43.9528 49.4039 43.9528 49.4039V30.5855C43.9528 28.671 42.5909 26.3599 41.1477 25.5669C41.1477 25.5669 41.3443 25.5545 41.6627 25.5546C42.6155 25.5543 44.6597 25.664 45.7987 26.5394C46.1151 26.1705 51.2217 20.3574 60.3084 18.5686C60.3084 18.5686 60.3067 18.5704 60.304 18.5737C60.3124 18.5721 60.3205 18.5703 60.3289 18.5686C60.3289 18.5686 55.3029 24.5224 53.7276 27.4749C53.4477 27.4916 53.4068 33.0764 53.4535 38.6569C53.4987 44.0437 53.6258 49.4275 53.6996 49.7999C53.6996 49.7999 54.2359 50.6019 55.6014 50.6088C57.1418 50.6167 59.7374 49.6129 63.807 45.3094L63.8068 45.3096L63.807 45.3094C63.807 45.3094 63.6997 45.5546 63.4837 45.9887C62.3174 48.3331 57.984 56.1923 50.2866 60.7603L50.2861 60.7599C50.2859 60.76 50.2856 60.7602 50.2855 60.7603L45.2928 56.5122L45.1652 56.405L39.7199 62.2136C39.7199 62.2136 39.7168 62.2133 39.7117 62.2128L39.711 62.2136C39.711 62.2136 27.2971 61.1571 22.1122 53.6302C22.1122 53.6302 22.122 53.6338 22.1367 53.6392C22.1345 53.6362 22.1323 53.6333 22.1303 53.6302C22.1303 53.6302 22.9154 53.9376 23.8016 53.9544C24.8399 53.9735 25.9302 53.5919 25.9302 51.8466V34.1511C25.9302 33.2475 25.3117 32.2338 23.9543 32.2376C22.7334 32.2408 20.9807 33.0673 18.5874 35.5377C13.5336 40.7536 11.4349 45.7062 11.4349 45.7062C11.4349 45.7062 11.4335 45.6995 11.4313 45.6874C11.4263 45.699 11.4232 45.7062 11.4232 45.7062ZM39 75.7071C48.6835 75.7071 57.7876 71.9134 64.6348 65.0248C71.4821 58.1361 75.253 48.9772 75.253 39.2353C75.253 29.4933 71.4821 20.3344 64.6348 13.4457C57.7876 6.55717 48.6835 2.76341 39 2.76341C29.3165 2.76341 20.2126 6.55717 13.3652 13.4457C6.518 20.3344 2.74701 29.4933 2.74701 39.2353C2.74701 48.9772 6.518 58.1361 13.3652 65.0248C20.2126 71.9134 29.3165 75.7071 39 75.7071Z" fill="white"/>
<path d="M39 1.08456C59.9437 1.08456 76.922 18.1653 76.922 39.2354C76.922 60.3055 59.9437 77.3863 39 77.3863C18.0563 77.3863 1.07806 60.3055 1.07806 39.2354C1.07806 18.1653 18.0563 1.08456 39 1.08456ZM39 78.471C49.4174 78.471 59.2111 74.3898 66.5772 66.9791C73.9434 59.5685 78 49.7157 78 39.2354C78 28.7553 73.9434 18.9024 66.5772 11.4917C59.2111 4.08109 49.4174 -7.62939e-06 39 -7.62939e-06C28.5826 -7.62939e-06 18.7889 4.08109 11.4228 11.4917C4.0566 18.9024 0 28.7553 0 39.2354C0 49.7157 4.0566 59.5685 11.4228 66.9791C18.7889 74.3898 28.5826 78.471 39 78.471Z" fill="white"/>
</svg>
