<svg width="98" height="16" viewBox="0 0 98 16" fill="none" xmlns="http://www.w3.org/2000/svg">
<path d="M4.79402 5.77446C6.19377 5.77446 7.36058 6.4938 7.905 7.2716V5.96891H10.0434V15.6887H8.51261C8.4328 15.6887 8.35376 15.673 8.28002 15.6425C8.20628 15.6119 8.13928 15.5671 8.08285 15.5107C8.02642 15.4542 7.98167 15.3872 7.95115 15.3135C7.92064 15.2397 7.90495 15.1607 7.905 15.0809V14.3868C7.36058 15.1646 6.19377 15.8836 4.79402 15.8836C2.13119 15.8836 0.109161 13.6092 0.109161 10.829C0.109161 8.04918 2.13119 5.77446 4.79402 5.77446ZM5.18292 7.71874C3.45239 7.71874 2.28592 9.07955 2.28592 10.829C2.28592 12.5785 3.45239 13.94 5.18292 13.94C6.91345 13.94 8.07992 12.5784 8.07992 10.829C8.07992 9.07966 6.91345 7.71874 5.18292 7.71874ZM12.4715 5.96891H14.6105V7.2909C15.1932 6.31899 16.3018 5.77446 17.5653 5.77446C19.8203 5.77446 21.2783 7.36877 21.2783 9.83749V15.6888H19.7478C19.668 15.6889 19.5889 15.6732 19.5151 15.6427C19.4414 15.6122 19.3743 15.5675 19.3178 15.511C19.2613 15.4546 19.2165 15.3876 19.1859 15.3139C19.1553 15.2401 19.1396 15.161 19.1395 15.0812V10.1878C19.1395 8.65149 18.362 7.71874 17.1183 7.71874C15.6991 7.71874 14.6107 8.82664 14.6107 10.9065V15.6888H13.0794C12.9996 15.6889 12.9206 15.6732 12.8468 15.6426C12.7731 15.6121 12.706 15.5674 12.6496 15.5109C12.5931 15.4545 12.5483 15.3875 12.5178 15.3138C12.4872 15.2401 12.4715 15.161 12.4715 15.0812V5.96891ZM27.6554 5.77446C29.0551 5.77446 30.2216 6.4938 30.766 7.2716V1.10924H32.9041V15.6887H31.3737C31.2938 15.6887 31.2148 15.673 31.1411 15.6425C31.0673 15.6119 31.0003 15.5671 30.9439 15.5107C30.8875 15.4542 30.8427 15.3872 30.8122 15.3135C30.7817 15.2397 30.766 15.1607 30.766 15.0809V14.3868C30.2216 15.1646 29.0551 15.8836 27.6554 15.8836C24.9918 15.8836 22.9701 13.6092 22.9701 10.829C22.9701 8.04918 24.9918 5.77446 27.6554 5.77446ZM28.0443 7.71874C26.3146 7.71874 25.1477 9.07955 25.1477 10.829C25.1477 12.5785 26.3146 13.94 28.0443 13.94C29.7741 13.94 30.9409 12.5784 30.9409 10.829C30.9409 9.07966 29.7741 7.71874 28.0443 7.71874ZM35.333 5.96891H37.4712V7.69944C37.8405 6.59086 38.9291 5.87152 40.0378 5.87152C40.3093 5.87152 40.5822 5.89149 40.8734 5.94972V8.14657C40.5041 8.02954 40.1933 7.97097 39.8044 7.97097C38.5795 7.97097 37.4712 9.00145 37.4712 10.9457V15.6888H35.9408C35.861 15.6889 35.7819 15.6732 35.7082 15.6426C35.6344 15.6121 35.5674 15.5674 35.511 15.5109C35.4545 15.4545 35.4097 15.3875 35.3792 15.3138C35.3486 15.2401 35.3329 15.161 35.3329 15.0812V5.96891H35.333ZM46.6397 15.8834C43.7624 15.8834 41.5466 13.6476 41.5466 10.8295C41.5466 8.01035 43.7624 5.77457 46.6397 5.77457C49.517 5.77457 51.7329 8.01024 51.7329 10.8294C51.7329 13.6476 49.517 15.8834 46.6397 15.8834ZM46.6397 13.9009C48.3503 13.9009 49.5559 12.559 49.5559 10.8295C49.5559 9.09941 48.3503 7.75767 46.6397 7.75767C44.9097 7.75767 43.7044 9.0993 43.7044 10.8295C43.7044 12.559 44.9097 13.9009 46.6397 13.9009ZM54.5349 3.85016C53.7573 3.85016 53.0969 3.20891 53.0969 2.41148C53.0969 1.63368 53.7573 0.992432 54.5349 0.992432C55.332 0.992432 55.9546 1.63368 55.9546 2.41148C55.9546 3.20891 55.332 3.85016 54.5349 3.85016ZM53.4666 5.96891H55.6042V15.689H54.0744C53.9132 15.689 53.7586 15.625 53.6446 15.5109C53.5306 15.3969 53.4666 15.2423 53.4666 15.0811V5.96891ZM62.047 5.77446C63.4469 5.77446 64.6136 6.4938 65.1581 7.2716V1.10924H67.2965V15.6887H65.7656C65.6858 15.6887 65.6067 15.673 65.533 15.6425C65.4593 15.6119 65.3923 15.5671 65.3358 15.5107C65.2794 15.4542 65.2347 15.3872 65.2041 15.3135C65.1736 15.2397 65.1579 15.1607 65.158 15.0809V14.3868C64.6134 15.1646 63.4468 15.8836 62.047 15.8836C59.3841 15.8836 57.362 13.6092 57.362 10.829C57.362 8.04918 59.3841 5.77446 62.047 5.77446ZM62.4359 7.71874C60.7061 7.71874 59.5394 9.07955 59.5394 10.829C59.5394 12.5785 60.7061 13.94 62.4359 13.94C64.166 13.94 65.3329 12.5784 65.3329 10.829C65.3329 9.07966 64.166 7.71874 62.4359 7.71874Z" fill="white"/>
<path d="M90.894 12.0203C90.2987 12.0203 89.8144 11.5357 89.8144 10.9405C89.8144 10.3452 90.2987 9.86096 90.894 9.86096C91.4893 9.86096 91.9735 10.3451 91.9735 10.9405C91.9735 11.5357 91.4893 12.0203 90.894 12.0203ZM78.9616 12.0203C78.3663 12.0203 77.882 11.5357 77.882 10.9405C77.882 10.3452 78.3662 9.86096 78.9616 9.86096C79.5568 9.86096 80.041 10.3451 80.041 10.9405C80.041 11.5357 79.5569 12.0203 78.9616 12.0203ZM91.2812 5.51737L93.4388 1.7805C93.4982 1.67738 93.5143 1.55489 93.4835 1.43994C93.4527 1.32499 93.3775 1.22695 93.2745 1.16735C93.1714 1.10798 93.0489 1.09194 92.9339 1.12274C92.819 1.15354 92.721 1.22868 92.6613 1.33167L90.4767 5.11572C88.8061 4.35338 86.9299 3.9287 84.9278 3.9287C82.9257 3.9287 81.0494 4.35338 79.3788 5.11583L77.1943 1.33178C77.1347 1.22878 77.0366 1.15361 76.9217 1.12279C76.8067 1.09196 76.6843 1.10799 76.5811 1.16735C76.4781 1.22691 76.4029 1.32494 76.372 1.43992C76.3412 1.55489 76.3573 1.67739 76.4168 1.7805L78.5744 5.51737C74.8694 7.53241 72.3356 11.2832 71.9649 15.7144H97.8907C97.5197 11.2832 94.9858 7.53241 91.2812 5.51737Z" fill="#3DDC84"/>
</svg>
