<svg width="91" height="26" viewBox="0 0 91 26" fill="none" xmlns="http://www.w3.org/2000/svg">
<path d="M38.162 19.2803C37.7272 19.4917 36.7548 19.8118 35.5166 19.8118C32.7323 19.8118 30.9264 17.9274 30.9264 15.1129C30.9264 12.2742 32.8712 10.1965 35.879 10.1965C36.8695 10.1965 37.7453 10.4441 38.2043 10.6918L37.8238 11.9662C37.4252 11.7548 36.797 11.5253 35.879 11.5253C33.7651 11.5253 32.6236 13.1077 32.6236 15.0102C32.6236 17.1422 33.9946 18.4589 35.8246 18.4589C36.7789 18.4589 37.4071 18.2294 37.8842 18.018L38.162 19.2803ZM40.125 6.07739H41.804V11.8514H41.8403C42.106 11.3743 42.5288 10.9394 43.0422 10.6495C43.5374 10.3717 44.1293 10.1905 44.7575 10.1905C45.9956 10.1905 47.9767 10.9515 47.9767 14.1163V19.6004H46.3036V14.3036C46.3036 12.8178 45.754 11.5796 44.1716 11.5796C43.0844 11.5796 42.2449 12.3406 41.9248 13.2345C41.8282 13.4821 41.8101 13.7298 41.8101 14.0318V19.5944H40.131L40.125 6.07739ZM50.6946 13.2587C50.6946 12.1715 50.6764 11.2414 50.616 10.3837H52.0897L52.1683 12.2138H52.2226C52.6394 10.9756 53.6782 10.1965 54.7956 10.1965C54.9647 10.1965 55.0975 10.2146 55.2546 10.2328V11.8152C55.0855 11.7789 54.9103 11.7789 54.6868 11.7789C53.5091 11.7789 52.6696 12.6547 52.44 13.911C52.4038 14.1344 52.3857 14.4244 52.3857 14.6901V19.6004H50.7066L50.6946 13.2587ZM65.0752 14.9136C65.0752 18.326 62.6956 19.8118 60.485 19.8118C58.0087 19.8118 56.0639 17.9818 56.0639 15.0646C56.0639 11.9964 58.1053 10.1844 60.636 10.1844C63.2875 10.1905 65.0752 12.1172 65.0752 14.9136ZM57.7792 15.0102C57.7792 17.0275 58.9207 18.5556 60.5575 18.5556C62.158 18.5556 63.3599 17.0456 63.3599 14.974C63.3599 13.4097 62.5808 11.4467 60.5998 11.4467C58.6368 11.4467 57.7792 13.2768 57.7792 15.0102ZM67.1952 12.8782C67.1952 11.9058 67.159 11.1448 67.1167 10.3837H68.5843L68.6629 11.8937H68.7233C69.2366 11.0179 70.0943 10.1965 71.6344 10.1965C72.8726 10.1965 73.8269 10.9575 74.2255 12.0447H74.2617C74.5396 11.5132 74.9261 11.1327 75.3126 10.8428C75.8623 10.426 76.4542 10.1965 77.3299 10.1965C78.5681 10.1965 80.38 10.9938 80.38 14.1948V19.6065H78.7553V14.4002C78.7553 12.6124 78.0849 11.5615 76.7562 11.5615C75.7837 11.5615 75.059 12.2682 74.757 13.0714C74.6785 13.3191 74.6241 13.6029 74.6241 13.911V19.6065H72.9873V14.0801C72.9873 12.6124 72.3411 11.5675 71.0606 11.5675C70.0339 11.5675 69.2487 12.4071 68.983 13.2466C68.8863 13.4701 68.8501 13.7781 68.8501 14.068V19.6125H67.1892L67.1952 12.8782ZM84.0159 15.2941C84.0522 17.559 85.4836 18.4952 87.1808 18.4952C88.3827 18.4952 89.1256 18.2838 89.7356 18.018L90.0376 19.2199C89.4457 19.4857 88.4189 19.8118 86.9513 19.8118C84.1126 19.8118 82.4154 17.9274 82.4154 15.1431C82.4154 12.3588 84.0522 10.1905 86.7399 10.1905C89.7718 10.1905 90.5449 12.8178 90.5449 14.5149C90.5449 14.8592 90.5268 15.1068 90.4845 15.2941H84.0159ZM88.9323 14.0982C88.9504 13.0533 88.4914 11.3924 86.607 11.3924C84.8917 11.3924 84.1669 12.9386 84.0341 14.0982H88.9323Z" fill="white"/>
<path d="M12.9709 25.7337C20.0073 25.7337 25.7113 20.0297 25.7113 12.9933C25.7113 5.957 20.0073 0.25293 12.9709 0.25293C5.9346 0.25293 0.23053 5.957 0.23053 12.9933C0.23053 20.0297 5.9346 25.7337 12.9709 25.7337Z" fill="white"/>
<path d="M21.0774 15.3103C21.0774 10.833 17.4483 7.20093 12.968 7.20093C8.48772 7.20093 4.85858 10.8301 4.85858 15.3103H7.17556C7.17556 12.1127 9.76738 9.5179 12.968 9.5179C16.1686 9.5179 18.7604 12.1097 18.7604 15.3103" fill="#010101" fill-opacity="0.1"/>
<path d="M13.5502 19.0163C15.9805 19.0163 17.9507 17.0461 17.9507 14.6158C17.9507 12.1855 15.9805 10.2153 13.5502 10.2153C11.1199 10.2153 9.14972 12.1855 9.14972 14.6158C9.14972 17.0461 11.1199 19.0163 13.5502 19.0163Z" fill="#010101" fill-opacity="0.1"/>
<path d="M12.9709 17.7426C15.5939 17.7426 17.7202 15.6163 17.7202 12.9934C17.7202 10.3704 15.5939 8.24414 12.9709 8.24414C10.348 8.24414 8.22174 10.3704 8.22174 12.9934C8.22174 15.6163 10.348 17.7426 12.9709 17.7426Z" fill="#569AD7"/>
<path d="M24.5529 7.20087C21.3641 0.787816 13.5768 -1.8306 7.16081 1.35819C5.16005 2.35118 3.44892 3.84658 2.19586 5.69661L7.40905 14.731C6.44857 11.6811 8.14493 8.42733 11.1948 7.46685C11.7327 7.2984 12.2913 7.20974 12.8528 7.20087" fill="#E36050"/>
<path d="M2.19878 5.69653C-1.79091 11.6486 -0.200948 19.7048 5.75108 23.6974C7.59224 24.9327 9.72008 25.6745 11.9277 25.8518L17.3744 16.584C15.3381 19.0516 11.6883 19.4033 9.22063 17.3642C8.38132 16.6726 7.75479 15.7594 7.41197 14.728" fill="#5FBD6B"/>
<path d="M11.9277 25.852C19.0708 26.3928 25.3006 21.0377 25.8414 13.8947C26.0158 11.5896 25.5695 9.2785 24.5529 7.20386H12.8557C16.0534 7.21863 18.6334 9.82228 18.6215 13.0229C18.6156 14.3173 18.1753 15.5704 17.3744 16.587" fill="#F3C23E"/>
<path d="M2.19879 5.69663L7.41198 14.7311C7.02779 13.4307 7.11054 12.0388 7.6425 10.7916L2.42931 5.3479" fill="url(#paint0_linear_303:727)"/>
<path d="M11.9277 25.8519L17.3744 16.5811C16.5144 17.6066 15.3293 18.3011 14.0142 18.5493L11.6972 25.846" fill="url(#paint1_linear_303:727)"/>
<path d="M24.5528 7.20093H12.8557C14.617 7.20979 16.2779 8.01955 17.3743 9.40264L24.7863 7.54965" fill="url(#paint2_linear_303:727)"/>
<defs>
<linearGradient id="paint0_linear_303:727" x1="4.91896" y1="14.3826" x2="4.91896" y2="11.3635" gradientUnits="userSpaceOnUse">
<stop stop-color="#010101" stop-opacity="0.15"/>
<stop offset="0.3" stop-color="#010101" stop-opacity="0.06"/>
<stop offset="1" stop-color="#010101" stop-opacity="0.03"/>
</linearGradient>
<linearGradient id="paint1_linear_303:727" x1="17.7082" y1="17.3748" x2="15.6326" y2="19.4882" gradientUnits="userSpaceOnUse">
<stop stop-color="#010101" stop-opacity="0.15"/>
<stop offset="0.3" stop-color="#010101" stop-opacity="0.06"/>
<stop offset="1" stop-color="#010101" stop-opacity="0.03"/>
</linearGradient>
<linearGradient id="paint2_linear_303:727" x1="17.6185" y1="19.2409" x2="17.9203" y2="16.2598" gradientUnits="userSpaceOnUse">
<stop stop-color="#010101" stop-opacity="0.15"/>
<stop offset="0.3" stop-color="#010101" stop-opacity="0.06"/>
<stop offset="1" stop-color="#010101" stop-opacity="0.03"/>
</linearGradient>
</defs>
</svg>
