<svg width="106" height="26" viewBox="0 0 106 26" fill="none" xmlns="http://www.w3.org/2000/svg">
<path d="M19.3993 6.66342H20.3146L22.9233 4.04975L23.0515 2.94008C21.557 1.61853 19.751 0.700497 17.8039 0.272698C15.8569 -0.1551 13.8332 -0.0785386 11.9239 0.49515C10.0146 1.06884 8.28278 2.12072 6.89206 3.55142C5.50134 4.98212 4.49762 6.74441 3.97571 8.67182C4.26633 8.55247 4.58827 8.53312 4.89105 8.61679L10.1085 7.75474C10.1085 7.75474 10.374 7.31454 10.5113 7.34206C11.6292 6.11195 13.1742 5.35649 14.8299 5.23033C16.4856 5.10417 18.1268 5.61685 19.4176 6.66342H19.3993Z" fill="#EA4335"/>
<path d="M26.6396 8.67178C26.04 6.45946 24.8088 4.4706 23.0972 2.94922L19.4358 6.61753C20.1989 7.24221 20.8104 8.03234 21.2243 8.92833C21.6381 9.82431 21.8435 10.8028 21.8249 11.7898V12.441C22.2528 12.441 22.6766 12.5254 23.0719 12.6895C23.4673 12.8536 23.8265 13.094 24.1291 13.3972C24.4317 13.7004 24.6717 14.0603 24.8355 14.4564C24.9992 14.8525 25.0835 15.277 25.0835 15.7058C25.0835 16.1345 24.9992 16.5591 24.8355 16.9552C24.6717 17.3513 24.4317 17.7112 24.1291 18.0143C23.8265 18.3175 23.4673 18.558 23.0719 18.722C22.6766 18.8861 22.2528 18.9706 21.8249 18.9706H15.3076L14.6577 19.6309V23.5468L15.3076 24.1979H21.8249C23.6448 24.2121 25.421 23.639 26.8906 22.5635C28.3602 21.4879 29.4453 19.967 29.9853 18.2257C30.5253 16.4843 30.4915 14.6151 29.889 12.8945C29.2864 11.1739 28.1471 9.69336 26.6396 8.67178Z" fill="#4285F4"/>
<path d="M8.78126 24.1612H15.2985V18.9338H8.78126C8.31694 18.9337 7.85806 18.8337 7.43571 18.6404L6.52036 18.9247L3.89333 21.5383L3.66449 22.4554C5.13767 23.57 6.93527 24.1692 8.78126 24.1612Z" fill="#34A853"/>
<path d="M8.78129 7.2044C7.01543 7.21497 5.29695 7.77785 3.86589 8.81442C2.43482 9.851 1.36263 11.3095 0.799064 12.9862C0.235501 14.6629 0.208709 16.4742 0.722432 18.1669C1.23615 19.8596 2.26474 21.3493 3.66452 22.4279L7.44489 18.6404C6.96448 18.4229 6.5439 18.0919 6.21924 17.6758C5.89458 17.2597 5.67553 16.7709 5.58088 16.2513C5.48623 15.7317 5.51881 15.1969 5.67582 14.6927C5.83283 14.1885 6.10959 13.73 6.48235 13.3566C6.85511 12.9831 7.31274 12.7058 7.81597 12.5485C8.31921 12.3912 8.85303 12.3586 9.37162 12.4534C9.89021 12.5482 10.3781 12.7677 10.7934 13.093C11.2088 13.4182 11.5391 13.8396 11.7562 14.3209L15.5365 10.5334C14.7431 9.49412 13.7204 8.65283 12.5485 8.07532C11.3766 7.49781 10.0873 7.19973 8.78129 7.2044Z" fill="#FBBC05"/>
<path d="M47.72 20.5112C46.598 20.5256 45.4845 20.3128 44.4465 19.8858C43.4084 19.4587 42.467 18.8262 41.6788 18.026C40.8657 17.2597 40.2204 16.3325 39.784 15.3032C39.3475 14.2739 39.1293 13.1649 39.1433 12.0466C39.1299 10.9284 39.3483 9.8196 39.7847 8.79036C40.2212 7.76111 40.8661 6.83385 41.6788 6.06726C42.4632 5.25876 43.4028 4.6177 44.4411 4.1827C45.4793 3.7477 46.5947 3.52776 47.72 3.53612C48.7923 3.5218 49.8567 3.72117 50.8514 4.12263C51.8461 4.5241 52.7512 5.11965 53.5142 5.87467L51.8849 7.53458C50.7691 6.45422 49.2716 5.86068 47.72 5.88384C46.9152 5.87394 46.1171 6.03188 45.3765 6.34765C44.6358 6.66341 43.9689 7.13008 43.4179 7.718C42.8453 8.28711 42.3937 8.96644 42.09 9.71508C41.7864 10.4637 41.6372 11.2662 41.6513 12.0741C41.6446 12.8729 41.7974 13.6649 42.1008 14.4035C42.4042 15.1422 42.852 15.8126 43.4179 16.3752C44.5515 17.507 46.0811 18.1508 47.6813 18.1696C49.2815 18.1885 50.8258 17.5809 51.9855 16.4761C52.7035 15.6883 53.144 14.6865 53.2396 13.624H47.7475V11.2763H55.5188C55.5951 11.7491 55.6258 12.2282 55.6103 12.7069C55.6586 13.6977 55.5059 14.6881 55.1614 15.6181C54.8168 16.5481 54.2876 17.3984 53.6057 18.1177C52.8476 18.9085 51.9316 19.5304 50.9175 19.9428C49.9033 20.3552 48.8139 20.5489 47.72 20.5112ZM65.7889 18.9522C64.746 19.9538 63.3572 20.513 61.9125 20.513C60.4678 20.513 59.0789 19.9538 58.036 18.9522C57.5169 18.4479 57.1081 17.8411 56.8355 17.1701C56.5629 16.4992 56.4324 15.7788 56.4524 15.0546C56.433 14.3306 56.5637 13.6103 56.8362 12.9394C57.1088 12.2686 57.5173 11.6616 58.036 11.157C59.08 10.1575 60.4684 9.59974 61.9125 9.59974C63.3565 9.59974 64.7449 10.1575 65.7889 11.157C66.3076 11.6616 66.7161 12.2686 66.9887 12.9394C67.2612 13.6103 67.3919 14.3306 67.3725 15.0546C67.3913 15.7794 67.2594 16.5002 66.9853 17.1712C66.7111 17.8422 66.3005 18.4487 65.7798 18.9522H65.7889ZM59.7477 17.4207C60.0251 17.7175 60.3603 17.9541 60.7327 18.1159C61.1051 18.2776 61.5066 18.3611 61.9125 18.3611C62.3183 18.3611 62.7199 18.2776 63.0922 18.1159C63.4646 17.9541 63.7998 17.7175 64.0772 17.4207C64.3797 17.1075 64.6165 16.7368 64.7738 16.3304C64.931 15.924 65.0054 15.4903 64.9926 15.0546C65.0061 14.6175 64.932 14.1822 64.7748 13.7742C64.6176 13.3663 64.3804 12.994 64.0772 12.6794C63.7962 12.3856 63.4587 12.1519 63.0851 11.9922C62.7115 11.8325 62.3095 11.7501 61.9033 11.7501C61.4971 11.7501 61.0951 11.8325 60.7215 11.9922C60.3479 12.1519 60.0104 12.3856 59.7294 12.6794C59.4262 12.994 59.189 13.3663 59.0318 13.7742C58.8746 14.1822 58.8005 14.6175 58.814 15.0546C58.8025 15.4909 58.8783 15.9251 59.0371 16.3315C59.1959 16.7379 59.4344 17.1082 59.7385 17.4207H59.7477ZM77.7067 18.9522C76.6638 19.9538 75.2749 20.513 73.8302 20.513C72.3855 20.513 70.9967 19.9538 69.9538 18.9522C69.4347 18.4479 69.0258 17.8411 68.7532 17.1701C68.4806 16.4992 68.3502 15.7788 68.3702 15.0546C68.3508 14.3306 68.4814 13.6103 68.754 12.9394C69.0266 12.2686 69.4351 11.6616 69.9538 11.157C70.9967 10.1554 72.3855 9.59622 73.8302 9.59622C75.2749 9.59622 76.6638 10.1554 77.7067 11.157C78.2254 11.6616 78.6339 12.2686 78.9065 12.9394C79.179 13.6103 79.3097 14.3306 79.2903 15.0546C79.3103 15.7788 79.1798 16.4992 78.9072 17.1701C78.6346 17.8411 78.2258 18.4479 77.7067 18.9522ZM71.6654 17.4207C71.9429 17.7175 72.2781 17.9541 72.6505 18.1159C73.0228 18.2776 73.4244 18.3611 73.8302 18.3611C74.2361 18.3611 74.6376 18.2776 75.01 18.1159C75.3824 17.9541 75.7176 17.7175 75.995 17.4207C76.2975 17.1075 76.5343 16.7368 76.6915 16.3304C76.8487 15.924 76.9231 15.4903 76.9104 15.0546C76.9239 14.6175 76.8498 14.1822 76.6926 13.7742C76.5354 13.3663 76.2982 12.994 75.995 12.6794C75.7139 12.3856 75.3764 12.1519 75.0028 11.9922C74.6292 11.8325 74.2273 11.7501 73.8211 11.7501C73.4149 11.7501 73.0129 11.8325 72.6393 11.9922C72.2657 12.1519 71.9282 12.3856 71.6471 12.6794C71.344 12.994 71.1068 13.3663 70.9496 13.7742C70.7924 14.1822 70.7183 14.6175 70.7318 15.0546C70.7202 15.4909 70.7961 15.9251 70.9549 16.3315C71.1137 16.7379 71.3522 17.1082 71.6563 17.4207H71.6654ZM85.5421 25.4084C84.4449 25.4434 83.369 25.1003 82.494 24.4363C81.717 23.8511 81.1051 23.0737 80.7182 22.1803L82.8052 21.3091C83.0323 21.843 83.3876 22.3124 83.8395 22.6755C84.3232 23.0662 84.9302 23.2711 85.5512 23.2533C85.945 23.2773 86.3394 23.216 86.7074 23.0736C87.0754 22.9311 87.4085 22.7109 87.684 22.4279C88.2354 21.7615 88.5077 20.9069 88.4437 20.0435V19.2548H88.3613C88.0125 19.6699 87.572 19.9979 87.0747 20.2128C86.5774 20.4277 86.037 20.5236 85.4963 20.4929C84.8091 20.495 84.1288 20.3542 83.4986 20.0796C82.8684 19.8049 82.3019 19.4023 81.8349 18.8972C81.3282 18.3961 80.9282 17.7971 80.6591 17.1367C80.3901 16.4762 80.2576 15.7679 80.2697 15.0546C80.257 14.3372 80.3892 13.6246 80.6581 12.9596C80.9271 12.2945 81.3274 11.6908 81.8349 11.1846C82.3008 10.6773 82.8669 10.2727 83.4972 9.9964C84.1275 9.72011 84.8083 9.57819 85.4963 9.57967C86.0786 9.57864 86.6538 9.70706 87.1805 9.95567C87.6362 10.155 88.0425 10.4525 88.3705 10.8269H88.4529V9.95567H90.7229V19.7226C90.7827 20.4952 90.6844 21.2719 90.4342 22.0051C90.1839 22.7384 89.7869 23.4128 89.2675 23.987C88.7728 24.4612 88.1882 24.8313 87.5484 25.0754C86.9085 25.3196 86.2263 25.4328 85.5421 25.4084ZM85.7068 18.3653C86.0977 18.3739 86.4856 18.2962 86.8432 18.1377C87.2007 17.9792 87.519 17.7438 87.7755 17.4482C88.3403 16.7998 88.638 15.9606 88.6085 15.1005C88.6424 14.2259 88.3448 13.3708 87.7755 12.7069C87.5194 12.4108 87.2012 12.1751 86.8435 12.0165C86.4859 11.858 86.0978 11.7806 85.7068 11.7898C85.3053 11.7816 84.9066 11.8591 84.5373 12.0172C84.168 12.1753 83.8365 12.4104 83.5649 12.7069C82.9594 13.3469 82.6305 14.2005 82.6496 15.0821C82.6403 15.5146 82.7163 15.9446 82.8734 16.3475C83.0305 16.7504 83.2655 17.1182 83.5649 17.4299C83.8352 17.7292 84.166 17.9674 84.5353 18.1287C84.9046 18.29 85.304 18.3706 85.7068 18.3653ZM94.7596 4.15056V20.1811H92.3705V4.15056H94.7596ZM101.313 20.5112C100.598 20.5297 99.8864 20.3999 99.2233 20.13C98.5602 19.8602 97.9598 19.4561 97.4598 18.943C96.9525 18.4337 96.5537 17.8264 96.2878 17.158C96.0219 16.4896 95.8943 15.774 95.9129 15.0546C95.8858 14.3335 96.004 13.6144 96.2603 12.94C96.5167 12.2656 96.9059 11.6499 97.4049 11.1295C97.8751 10.6329 98.4437 10.2401 99.0742 9.97641C99.7047 9.71268 100.383 9.58379 101.066 9.59801C101.694 9.59136 102.317 9.71306 102.897 9.95567C103.419 10.1668 103.895 10.4784 104.297 10.8727C104.643 11.2071 104.95 11.5793 105.213 11.9824C105.425 12.3228 105.606 12.6819 105.753 13.0554L106 13.679L98.6772 16.6962C98.8987 17.206 99.2692 17.6366 99.7397 17.9313C100.21 18.226 100.759 18.3709 101.313 18.3469C101.853 18.3484 102.383 18.2098 102.854 17.9446C103.324 17.6794 103.717 17.2967 103.995 16.8338L105.826 18.0718C105.359 18.7415 104.761 19.3093 104.069 19.7409C103.245 20.2621 102.287 20.53 101.313 20.5112ZM98.2562 14.8895L103.126 12.8628C102.976 12.5054 102.708 12.2107 102.366 12.0283C101.984 11.812 101.551 11.7012 101.112 11.7073C100.367 11.7266 99.6599 12.0397 99.1441 12.5785C98.8354 12.8745 98.5957 13.2351 98.4422 13.6346C98.2888 14.0341 98.2252 14.4626 98.2562 14.8895Z" fill="white"/>
</svg>
