<svg width="68" height="27" viewBox="0 0 68 27" fill="none" xmlns="http://www.w3.org/2000/svg">
<path d="M31.6 25.3H29.6V13.3H31.6V25.3ZM30.6 11.3C29.9 11.3 29.3 10.7 29.3 10C29.3 9.3 29.9 8.7 30.6 8.7C31.3 8.7 31.9 9.3 31.9 10C31.9 10.7 31.3 11.3 30.6 11.3ZM42.7 25.6C37.4 25.6 34 21.8 34 15.8C34 9.8 37.4 6 42.7 6C48 6 51.4 9.8 51.4 15.8C51.4 21.8 48 25.6 42.7 25.6ZM49.5 15.8C49.5 10.8 46.9 7.6 42.7 7.6C38.5 7.6 35.9 10.8 35.9 15.8C35.9 20.8 38.5 23.9 42.7 23.9C46.9 23.9 49.5 20.8 49.5 15.8ZM60.2 25.6C56.2 25.6 53.4 23.4 53.2 20.1H55C55.2 22.4 57.3 23.9 60.3 23.9C63.2 23.9 65.2 22.3 65.2 20.2C65.2 18.4 64 17.4 61.1 16.7L58.7 16.1C55.2 15.2 53.6 13.7 53.6 11.2C53.6 8.1 56.4 5.9 60.1 5.9C63.8 5.9 66.5 8.1 66.6 11.1H65C64.9 9 63 7.6 60.3 7.6C57.7 7.6 55.7 9.1 55.7 11.2C55.7 12.8 56.9 13.8 59.7 14.5L61.8 15C65.6 16 67.2 17.4 67.2 20.1C67.1 23.4 64.5 25.6 60.2 25.6ZM21.6 20.4C21.2 21.3 20.7 22.2 20.2 22.9C19.5 24 18.9 24.7 18.4 25.1C17.7 25.8 16.9 26.1 16.1 26.1C15.5 26.1 14.8 25.9 13.9 25.6C13.1 25.3 12.3 25.1 11.6 25.1C10.9 25.1 10.1 25.3 9.2 25.6C8.4 25.9 7.7 26.1 7.1 26.1C6.3 26.1 5.5 25.8 4.7 25C4.2 24.6 3.6 23.8 2.8 22.7C2 21.6 1.3 20.2 0.8 18.7C0.3 17.2 0 15.6 0 14.1C0 12.3 0.4 10.8 1.1 9.6C1.7 8.6 2.5 7.8 3.5 7.2C4.5 6.6 5.6 6.3 6.7 6.3C7.3 6.3 8.2 6.5 9.2 6.9C10.2 7.3 10.9 7.5 11.2 7.5C11.4 7.5 12.1 7.3 13.4 6.8C14.6 6.4 15.6 6.2 16.4 6.3C18.6 6.5 20.3 7.3 21.4 8.9C19.4 10.1 18.5 11.8 18.5 13.9C18.5 15.6 19.1 17 20.3 18.1C20.8 18.6 21.4 19 22.1 19.3C21.9 19.6 21.7 20 21.6 20.4ZM16.5 0.5C16.5 1.8 16 3 15.1 4.2C14 5.5 12.6 6.3 11.1 6.2C11.1 6 11.1 5.9 11.1 5.7C11.1 4.4 11.6 3.1 12.6 2C13.1 1.4 13.7 1 14.4 0.6C15.1 0.2 15.8 0 16.5 0C16.5 0.2 16.5 0.3 16.5 0.5Z" fill="white"/>
</svg>
