<svg width="122" height="23" viewBox="0 0 122 23" fill="none" xmlns="http://www.w3.org/2000/svg">
<path d="M74.0045 4.35168V19.4546H78.2666V4.35168H74.0045ZM40.4708 4.32608V19.4418H44.7713V7.70505L48.1246 7.71784C49.2254 7.71784 49.9933 7.98663 50.5181 8.54979C51.1964 9.26654 51.4652 10.4313 51.4652 12.5431V19.4418H55.6377V11.0968C55.6377 5.13242 51.8364 4.32608 48.1246 4.32608H40.4708ZM80.8776 4.35168V19.4546H87.7891C91.4752 19.4546 92.6784 18.8403 93.9711 17.4708C94.8926 16.5108 95.4814 14.3862 95.4814 12.0695C95.4814 9.94489 94.9822 8.05062 94.0991 6.8731C92.5376 4.76125 90.2593 4.35168 86.8548 4.35168H80.8776ZM85.1013 7.62825H86.9316C89.5938 7.62825 91.3088 8.81857 91.3088 11.916C91.3088 15.0133 89.5938 16.2165 86.9316 16.2165H85.1013V7.62825ZM67.8609 4.35168L64.3027 16.3188L60.8982 4.35168H56.2905L61.1541 19.4546H67.2977L72.2126 4.35168H67.8609ZM97.478 19.4546H101.74V4.35168H97.478V19.4546ZM109.432 4.35168L103.481 19.4418H107.679L108.626 16.7668H115.666L116.561 19.429H121.131L115.128 4.35168H109.432ZM112.197 7.10349L114.782 14.1686H109.535L112.197 7.10349Z" fill="white"/>
<path d="M12.9655 6.86032V4.78687C13.1703 4.77407 13.3751 4.76127 13.5799 4.76127C19.2627 4.58208 22.9872 9.65053 22.9872 9.65053C22.9872 9.65053 18.9683 15.2309 14.655 15.2309C14.079 15.2309 13.5159 15.1413 12.9783 14.9622V8.665C15.1925 8.93378 15.6405 9.90651 16.9588 12.1208L19.9154 9.63773C19.9154 9.63773 17.7524 6.80913 14.1174 6.80913C13.7334 6.79633 13.3495 6.82193 12.9655 6.86032V6.86032ZM12.9655 0V3.09738L13.5799 3.05899C21.4769 2.79021 26.6349 9.53534 26.6349 9.53534C26.6349 9.53534 20.7218 16.7284 14.5654 16.7284C14.0278 16.7284 13.5031 16.6772 12.9783 16.5876V18.5075C13.4135 18.5587 13.8614 18.5971 14.2966 18.5971C20.0306 18.5971 24.1775 15.6661 28.1964 12.2104C28.862 12.7479 31.5882 14.0406 32.1514 14.6038C28.3372 17.8036 19.4418 20.3762 14.399 20.3762C13.9126 20.3762 13.4519 20.3506 12.9911 20.2994V23H34.7752V0H12.9655V0ZM12.9655 14.9622V16.6004C7.66667 15.6533 6.19477 10.1369 6.19477 10.1369C6.19477 10.1369 8.74179 7.32109 12.9655 6.86032V8.6522H12.9527C10.7385 8.38342 8.99777 10.4569 8.99777 10.4569C8.99777 10.4569 9.98331 13.951 12.9655 14.9622V14.9622ZM3.55815 9.90651C3.55815 9.90651 6.69393 5.27323 12.9783 4.78687V3.09738C6.01558 3.66055 0 9.54814 0 9.54814C0 9.54814 3.40456 19.4035 12.9655 20.2994V18.5075C5.95159 17.6372 3.55815 9.90651 3.55815 9.90651V9.90651Z" fill="#76B900"/>
</svg>
