<svg width="94" height="11" viewBox="0 0 94 11" fill="none" xmlns="http://www.w3.org/2000/svg">
<path d="M1.33054 6.19095C1.16618 6.19095 1.02921 6.05398 1.02921 5.88962V1.56928C1.02921 1.40492 1.16618 1.26795 1.33054 1.26795H3.25591C4.65689 1.26795 5.78785 2.14454 5.84263 3.60422C5.78785 5.09521 4.65689 6.19095 3.27156 6.19095H1.33054ZM0.71223 10.6365C0.857024 10.6365 1.02138 10.5622 1.02921 10.433V7.35321C1.02921 7.18885 1.16618 7.05189 1.33054 7.05189H3.6629C5.44347 7.05189 6.91881 5.6783 6.91881 3.8038C6.91881 3.76858 6.91489 3.73728 6.91489 3.70206C6.91489 3.66684 6.91881 3.63161 6.91881 3.60031C6.91881 1.7532 5.44348 0.391357 3.64725 0.391357H0.305241C0.136967 0.391357 0 0.528323 0 0.692684V10.3156C0 10.5152 0.195668 10.6365 0.363942 10.6365H0.71223Z" fill="white"/>
<path d="M17.9662 0.391357H17.6179H12.3897H12.0453C11.877 0.391357 11.7401 0.528323 11.7401 0.692684V0.89618V10.1121V10.3156C11.7401 10.4839 11.877 10.617 12.0453 10.617H12.3897H17.6179H17.9662C18.1306 10.617 18.2675 10.4839 18.2675 10.3156V10.2178V10.1121C18.2675 9.94776 18.1306 9.8108 17.9662 9.8108H17.6179H13.0862C12.918 9.8108 12.781 9.67775 12.781 9.50947V6.08137C12.781 5.9131 12.918 5.78005 13.0862 5.78005H16.9096H17.2579C17.4222 5.78005 17.5592 5.64308 17.5592 5.47872V5.46307C17.5592 5.43176 17.5592 5.46306 17.5631 5.38479C17.5553 5.28696 17.5592 5.30653 17.5592 5.27522V5.25957C17.5592 5.0913 17.4222 4.95824 17.2579 4.95824H16.9096H13.0862C12.918 4.95824 12.781 4.82518 12.781 4.65691V1.51449C12.781 1.34622 12.918 1.21316 13.0862 1.21316H17.6179H17.9662C18.1306 1.21316 18.2675 1.07619 18.2675 0.911834V0.89618V0.704427V0.692684C18.2675 0.528323 18.1306 0.391357 17.9662 0.391357Z" fill="white"/>
<path d="M24.435 5.88962C24.2667 5.88962 24.1298 5.75265 24.1298 5.58829V1.55754C24.1298 1.38926 24.2667 1.25621 24.435 1.25621H26.8261C28.1918 1.25621 29.1584 2.12497 29.2171 3.43203C29.1584 4.79779 28.1918 5.88962 26.8378 5.88962H24.435ZM23.8441 10.617C24.0124 10.617 24.118 10.5309 24.118 10.433V7.05189C24.118 6.88753 24.2511 6.75056 24.4193 6.75056H26.8221C26.92 6.7623 27.01 6.81708 27.0609 6.90318L29.041 10.4448C29.1115 10.5739 29.1702 10.617 29.3423 10.617H30.1015C30.1015 10.617 30.4107 10.6169 30.1681 10.1552L28.231 6.75838L28.2466 6.78186C28.1527 6.6175 28.3875 6.53924 28.3875 6.53924C29.5341 6.16747 30.4185 4.76649 30.3716 3.3929C30.4068 2.29716 29.8746 1.18577 28.4227 0.598765C28.3484 0.567458 27.8709 0.391357 27.0569 0.391357H23.2766C23.1592 0.391357 23.0888 0.477452 23.0888 0.575285V10.3156C23.0888 10.4839 23.2258 10.617 23.394 10.617H23.8441Z" fill="white"/>
<path d="M36.2611 10.617H36.4059C36.5507 10.617 36.6407 10.5309 36.6407 10.433V10.2256V6.46488C36.6407 6.30052 36.7777 6.16746 36.942 6.16746H40.8945H41.2428C41.462 6.16746 41.4307 5.90919 41.4307 5.74874C41.4307 5.74874 41.4307 5.74482 41.4307 5.74091C41.4346 5.67438 41.4307 5.60394 41.4307 5.54524C41.4307 5.4435 41.3446 5.3574 41.2428 5.3574H40.8945H36.942C36.7777 5.3574 36.6407 5.22435 36.6407 5.05607V1.51449C36.6407 1.34622 36.7777 1.21316 36.942 1.21316H41.4894H41.8377C42.002 1.21316 42.139 1.07619 42.139 0.911834V0.89618V0.704427V0.692684C42.139 0.528323 42.002 0.391357 41.8377 0.391357H41.4894H36.2611H35.9168C35.7485 0.391357 35.6115 0.528323 35.6115 0.692684V0.89618V10.1121V10.3156C35.6115 10.4839 35.7485 10.617 35.9168 10.617H36.0615H36.2611Z" fill="white"/>
<path d="M46.7919 4.10904C46.8702 3.90555 46.9602 3.70988 47.0659 3.52595C46.9641 3.43203 46.7098 3.23245 46.7254 3.2168C48.052 1.62798 49.7817 1.15055 51.3119 1.4284C51.6249 1.47144 51.938 1.5458 52.2472 1.65928C54.4386 2.47326 55.5461 4.8878 54.7243 7.0558C54.6421 7.27103 54.5404 7.47844 54.4308 7.6702C54.5521 7.77586 54.8182 7.97152 54.8026 7.98718C53.3312 9.72862 51.3706 10.1317 49.7387 9.64643C49.5822 9.6073 49.4256 9.56034 49.2691 9.50555C47.0815 8.69158 45.9701 6.27704 46.7919 4.10904ZM54.2665 0.391357C53.9886 0.657465 53.656 0.978361 53.4916 1.12316C53.2333 0.978361 52.9555 0.845306 52.6659 0.739646C50.177 -0.183906 47.5551 0.860959 46.111 2.8059C45.3557 3.9212 44.9096 5.29479 45.0192 6.70751C45.0192 6.70751 45.0231 9.36467 47.4768 10.93C47.6764 10.6561 47.9307 10.3039 48.099 10.0769C48.3729 10.2334 48.6625 10.3743 48.9678 10.4878C51.7854 11.5327 54.9082 10.1982 55.9296 7.50975C55.9296 7.50975 56.6771 5.87005 56.4305 4.07774C56.4305 4.07774 56.2388 1.65928 54.2665 0.391357Z" fill="white"/>
<path d="M62.0032 5.88962C61.8349 5.88962 61.6979 5.75265 61.6979 5.58829V1.55754C61.6979 1.38926 61.8349 1.25621 62.0032 1.25621H64.3942C65.76 1.25621 66.7266 2.12497 66.7853 3.43203C66.7266 4.79779 65.76 5.88962 64.406 5.88962H62.0032ZM61.4123 10.617C61.5805 10.617 61.6862 10.5309 61.6862 10.433V7.05189C61.6862 6.88753 61.8232 6.75056 61.9875 6.75056H64.3903C64.4882 6.7623 64.5782 6.81708 64.629 6.90318L66.6053 10.4448C66.6796 10.5739 66.7383 10.617 66.9105 10.617H67.6697C67.6697 10.617 67.9789 10.6169 67.7362 10.1552L65.7991 6.75838L65.8148 6.78186C65.7209 6.6175 65.9557 6.53924 65.9557 6.53924C67.1023 6.16747 67.9867 4.76649 67.9397 3.3929C67.9749 2.29716 67.4427 1.18577 65.9909 0.598765C65.9165 0.567458 65.4391 0.391357 64.6251 0.391357H60.8448C60.7274 0.391357 60.657 0.477452 60.657 0.575285V10.3156C60.657 10.4839 60.7939 10.617 60.9622 10.617H61.4123Z" fill="white"/>
<path d="M81.7969 8.5585C81.9143 8.66416 82.157 8.93027 81.9104 9.12594C80.8342 9.96731 79.6642 10.5152 78.3767 10.5152C78.314 10.5152 78.2553 10.5113 78.1966 10.5074C78.1419 10.5113 78.0871 10.5152 78.0284 10.5152C75.1325 10.5152 72.7884 8.25326 72.7884 5.37303C72.7884 5.33781 72.7923 5.30651 72.7923 5.27129C72.7923 5.23607 72.7884 5.20476 72.7884 5.16954C72.7884 2.30497 75.1325 0 78.0284 0C78.0753 0 78.1145 0.00391419 78.1575 0.00391419C78.2319 0.00391419 78.3023 0 78.3767 0C79.852 0 80.9516 0.485256 81.8948 1.33054C82.1883 1.57708 81.9104 1.79623 81.9104 1.79623L81.6874 2.00755C81.6013 2.09364 81.3625 2.28148 81.253 2.17974C81.116 2.04668 81.0847 2.0232 81.0847 2.0232L81.253 2.17974C81.116 2.05451 81.1825 2.11321 81.0847 2.0232C80.302 1.33054 79.3198 0.900072 78.2084 0.857025C75.7899 0.947032 73.9154 2.89588 73.8606 5.27129C73.9154 7.63104 75.7899 9.56423 78.2045 9.65424C79.3628 9.61119 80.2551 9.14159 81.0847 8.46067C81.0847 8.46067 81.4408 8.18673 81.7969 8.5585Z" fill="white"/>
<path d="M92.7113 0.391357H92.363H87.1386H86.7903C86.6221 0.391357 86.4851 0.528323 86.4851 0.692684V0.89618V10.1121V10.3156C86.4851 10.4839 86.6221 10.617 86.7903 10.617H87.1386H92.363H92.7113C92.8795 10.617 93.0165 10.4839 93.0165 10.3156V10.2178V10.1121C93.0165 9.94776 92.8795 9.8108 92.7113 9.8108H92.363H87.8313C87.663 9.8108 87.5261 9.67775 87.5261 9.50947V6.08137C87.5261 5.9131 87.663 5.78005 87.8313 5.78005H91.6546H92.0029C92.1673 5.78005 92.3043 5.64308 92.3043 5.47872V5.46307C92.3043 5.43176 92.3043 5.46306 92.3082 5.38479C92.3043 5.28696 92.3043 5.30653 92.3043 5.27522V5.25957C92.3043 5.0913 92.1673 4.95824 92.0029 4.95824H91.6546H87.8313C87.663 4.95824 87.5261 4.82518 87.5261 4.65691V1.51449C87.5261 1.34622 87.663 1.21316 87.8313 1.21316H92.363H92.7113C92.8795 1.21316 93.0165 1.07619 93.0165 0.911834V0.89618V0.704427V0.692684C93.0165 0.528323 92.8795 0.391357 92.7113 0.391357Z" fill="white"/>
</svg>
