<svg width="106" height="30" viewBox="0 0 106 30" fill="none" xmlns="http://www.w3.org/2000/svg">
<path d="M30 0H0V30H30V0Z" fill="#2857AF"/>
<path d="M12.2423 18.2169C12.4462 18.5047 12.68 18.6666 12.8838 18.6546C13.1176 18.6427 13.3874 18.4028 13.5853 18.037C14.2207 16.8556 14.6344 15.6922 15.0361 14.5708C15.5996 12.9937 16.1752 11.3686 17.3382 9.8334C18.5672 8.23226 20.5037 7.6086 21.2111 7.43469C21.319 7.40471 21.349 7.26678 21.265 7.20082C19.5444 5.82156 17.3742 5 15.0121 5C13.855 5 12.7399 5.19789 11.7028 5.5637C10.4258 6.01345 9.5685 7.21281 9.53253 8.56808C9.47258 11.1827 9.89224 14.9247 12.2423 18.2169Z" fill="white"/>
<path d="M21.5408 9.74943C20.4737 9.88736 19.6943 10.6489 19.2267 11.2606C18.2854 12.5079 17.8118 13.8272 17.2663 15.3624C16.8346 16.5678 16.391 17.8151 15.6715 19.1584C15.072 20.2738 14.1128 21.4132 13.0337 21.4851C12.9737 21.4851 12.9198 21.4911 12.8598 21.4911C11.8826 21.4911 10.9534 20.5136 10.2999 19.5961C7.88983 16.2139 7.21238 12.5139 7.14043 9.64149C7.13444 9.38363 6.80471 9.29367 6.65483 9.50956C5.23397 11.5904 4.56851 14.4869 5.29992 17.4133C6.23517 21.1493 9.26272 23.9618 12.7339 24.7414C19.2387 26.2046 25 21.2572 25 14.9966C25 13.7373 24.7662 12.5319 24.3405 11.4225C24.0288 10.613 23.3393 9.9893 22.494 9.8034C22.1703 9.72544 21.8525 9.70745 21.5408 9.74943Z" fill="white"/>
<path d="M55.4192 6.96429H59.3228L52.6381 23.1071H49.5425L42.8571 6.96429H46.7602L51.09 17.6815L55.4192 6.96429Z" fill="white"/>
<path d="M68.4774 14.4976H72.7397C72.9787 14.4976 73.2223 14.4419 73.4682 14.3297C73.7152 14.2176 73.9321 14.0642 74.1193 13.8701C74.3059 13.6761 74.4588 13.4477 74.5785 13.1862C74.6983 12.9254 74.7587 12.6441 74.7587 12.3455C74.7587 12.0463 74.6983 11.7662 74.5785 11.5047C74.4588 11.2433 74.3059 11.0149 74.1193 10.8209C73.9321 10.6274 73.7152 10.4734 73.4682 10.3613C73.2223 10.2491 72.9787 10.1933 72.7397 10.1933H68.4774V14.4976V14.4976ZM68.4774 23.1074H64.8882V6.96454H68.4774H72.9188C73.6664 6.96454 74.3692 7.10689 75.0273 7.39102C75.6854 7.67456 76.2615 8.05979 76.7544 8.54495C77.2486 9.03069 77.6369 9.59953 77.9218 10.2491C78.2055 10.8987 78.3473 11.5983 78.3473 12.3455C78.3473 12.9283 78.2578 13.482 78.0787 14.0043C77.8991 14.5278 77.652 15.0101 77.3381 15.4505C77.0236 15.8921 76.6498 16.2768 76.2167 16.6056C75.7825 16.9339 75.3116 17.1965 74.8035 17.3906L79.2001 23.1074H74.9825L70.9446 17.7264H68.4774V23.1074V23.1074Z" fill="white"/>
<path d="M85.7382 20.413C86.2015 20.413 86.6381 20.3234 87.0508 20.1431C87.4613 19.9639 87.8165 19.7248 88.1159 19.4252C88.4147 19.1261 88.6536 18.7707 88.8338 18.3588C89.0129 17.9474 89.103 17.51 89.103 17.0457C89.103 16.5814 89.0129 16.1445 88.8338 15.7326C88.6536 15.3213 88.4147 14.9653 88.1159 14.6657C87.8165 14.3666 87.4613 14.1269 87.0508 13.9478C86.6381 13.768 86.2015 13.6784 85.7382 13.6784C85.2743 13.6784 84.8371 13.768 84.4261 13.9478C84.014 14.1269 83.6593 14.3666 83.3605 14.6657C83.0606 14.9653 82.8216 15.3213 82.642 15.7326C82.463 16.1445 82.3734 16.5814 82.3734 17.0457C82.3734 17.51 82.463 17.9474 82.642 18.3588C82.8216 18.7707 83.0606 19.1261 83.3605 19.4252C83.6593 19.7248 84.014 19.9639 84.4261 20.1431C84.8371 20.3234 85.2743 20.413 85.7382 20.413ZM85.6708 10.6252C86.5829 10.6252 87.4462 10.7934 88.2612 11.1302C89.0768 11.4671 89.7831 11.9273 90.3813 12.5108C90.9795 13.0943 91.4545 13.7761 91.8062 14.5534C92.1573 15.333 92.3329 16.1626 92.3329 17.0457V23.1066H89.1925V21.6033C88.8036 22.1717 88.3025 22.6243 87.6897 22.9606C87.0764 23.2974 86.4038 23.4662 85.6708 23.4662C84.7435 23.4662 83.8762 23.2974 83.0687 22.9606C82.2612 22.6243 81.5578 22.1636 80.9596 21.5812C80.362 20.9965 79.8871 20.3158 79.5354 19.538C79.1836 18.759 79.0087 17.9288 79.0087 17.0457C79.0087 16.1626 79.1836 15.333 79.5354 14.5534C79.8871 13.7761 80.362 13.0943 80.9596 12.5108C81.5578 11.9273 82.2612 11.4671 83.0687 11.1302C83.8762 10.7934 84.7435 10.6252 85.6708 10.6252Z" fill="white"/>
<path d="M94.8281 27.1429H98.575L105.919 11H102.263L99.0995 17.9861L95.9591 11H92.3025L97.2828 21.6925L94.8281 27.1429Z" fill="white"/>
<path d="M63.0526 14.5355H57.967V17.6893H63.0526V14.5355Z" fill="white"/>
</svg>
