<svg width="131" height="34" viewBox="0 0 131 34" fill="none" xmlns="http://www.w3.org/2000/svg">
<path d="M42.0274 24.1836C43.1884 24.5683 44.4061 24.7536 45.6289 24.7316C48.578 24.7316 51.4488 23.418 51.4488 20.2515C51.4488 18.4508 50.0221 17.3025 48.2822 17.0763C49.0853 16.9537 49.818 16.5477 50.3477 15.9318C50.8775 15.3159 51.1693 14.5307 51.1704 13.7184C51.1704 11.0042 48.5606 10.1343 46.0987 10.1343C44.8433 10.1327 43.5966 10.3415 42.4102 10.7519L42.532 12.4918C43.5613 12.0634 44.6622 11.8331 45.7768 11.8132C47.3079 11.8132 48.8999 12.3004 48.8999 13.9097C48.8999 15.754 47.4384 16.3281 45.4202 16.3281H43.8282V17.9201H45.6985C47.4384 17.9201 49.0652 18.4334 49.0652 20.2341C49.0652 22.1827 47.4384 22.9918 45.5854 22.9918C44.3962 22.9982 43.2161 22.7828 42.1057 22.3567L41.9839 24.1836H42.0274ZM56.9641 12.0655H58.7649C62.0967 12.0655 63.8191 13.9706 63.8191 17.2242C63.8191 20.9735 61.7748 22.783 58.1298 22.783H56.9641V12.0655ZM58.3647 24.4967C63.0275 24.4967 66.2375 22.1392 66.2375 17.2242C66.2375 12.57 63.5581 10.343 58.9997 10.343H54.6501V24.4967H58.3647ZM68.4384 24.1575C69.6099 24.5386 70.8341 24.7324 72.066 24.7316C74.7889 24.7316 76.9724 23.418 76.9724 20.5299C76.9724 18.3203 75.6588 17.4503 73.9799 16.6674L72.8142 16.1367C71.7703 15.6322 70.8394 15.1189 70.8394 13.9532C70.8394 12.3874 72.1965 11.8741 73.3883 11.8741C74.4001 11.8631 75.4036 12.0585 76.3374 12.4483L76.4592 10.5779C75.4199 10.2725 74.341 10.123 73.2578 10.1343C71.0482 10.1343 68.6124 11.2826 68.6124 14.0837C68.6124 15.9889 69.7607 16.9023 71.1352 17.5634L72.24 18.0941C73.5536 18.7117 74.6758 19.3033 74.6758 20.643C74.6758 22.3393 73.3187 22.9744 71.9616 22.9744C70.7745 23 69.6006 22.7215 68.5515 22.1654L68.4384 24.1401V24.1575ZM87.8378 24.4967V12.0046L92.4832 24.4967H94.5884L99.2339 12.0046V24.4967H101.417V10.343H97.9377L93.588 21.974L89.2384 10.343H85.7587V24.4967H87.8378ZM105.402 24.4967L106.802 20.7822H113.361L114.719 24.4967H117.137L111.622 10.343H108.716L103.201 24.4967H105.402ZM110.091 11.9785L112.787 19.0858H107.376L110.091 11.9785ZM119.808 24.4967L123.888 18.3638L127.811 24.4967H130.551L125.393 17.0937L130.099 10.343H127.62L124.053 15.7975L120.451 10.343H117.798L122.487 17.0937L117.267 24.4967H119.808Z" fill="white"/>
<path d="M27.2892 17.3633L12.2221 23.0961M12.2743 7.54186L19.0597 1H3.90556L1.06089 7.49836H12.2743V7.54186ZM1.06089 7.54186L9.09032 10.5953L12.2743 7.58534L1.06089 7.54186ZM12.2743 11.8306L9.10772 10.5953L1.56545 17.5547L8.92503 24.3923L12.2221 23.0961L12.2743 7.54186V11.8306ZM12.2743 7.54186L27.2892 17.3633L19.0597 1L12.2743 7.54186ZM27.2544 17.3633L12.2221 11.7871L27.2544 17.3633ZM12.2221 23.0961V27.4458V23.0961ZM19.1815 33.8919L8.92503 24.3923L1 27.3675L3.88815 33.8658L19.1815 33.8919ZM19.1815 33.8919L27.3588 17.3633L12.1786 27.4197L19.1815 33.8919Z" stroke="#231F20" stroke-width="0.03" stroke-miterlimit="22.93"/>
<path d="M12.1786 27.4197L1 27.3675" stroke="#231F20" stroke-width="0.22" stroke-miterlimit="22.93"/>
<path fill-rule="evenodd" clip-rule="evenodd" d="M12.2569 11.7871L27.2892 17.372L12.2743 7.54187L12.2569 11.7871Z" fill="#091311"/>
<path fill-rule="evenodd" clip-rule="evenodd" d="M27.2892 17.372L12.222 23.0962L12.1785 27.4197H12.1872L27.2892 17.372Z" fill="#0D1616"/>
<path fill-rule="evenodd" clip-rule="evenodd" d="M12.2743 7.54186L27.2892 17.372L19.0858 1L12.2743 7.54186Z" fill="#006261"/>
<path fill-rule="evenodd" clip-rule="evenodd" d="M27.2892 17.372L12.1873 27.4197L19.1119 33.8659L27.2892 17.372Z" fill="#004242"/>
<path fill-rule="evenodd" clip-rule="evenodd" d="M12.2221 23.0961L27.2892 17.372L12.2569 11.7871L12.2221 23.0961Z" fill="#005353"/>
<path fill-rule="evenodd" clip-rule="evenodd" d="M12.2221 23.0962L12.2569 11.7871L9.09034 10.5518L1.54807 17.5547L8.92505 24.3924L12.2221 23.0962Z" fill="#006D6D"/>
<path fill-rule="evenodd" clip-rule="evenodd" d="M9.0903 10.5518L12.2568 11.7871L12.2742 7.54187L9.0903 10.5518Z" fill="#0E2222"/>
<path fill-rule="evenodd" clip-rule="evenodd" d="M12.2221 23.0962L8.92505 24.3924L12.1786 27.4197L12.2221 23.0962Z" fill="#102222"/>
<path fill-rule="evenodd" clip-rule="evenodd" d="M12.1786 27.4197L1 27.3675L3.88815 33.8659H19.1119L12.1873 27.4197H12.1786Z" fill="#006868"/>
<path fill-rule="evenodd" clip-rule="evenodd" d="M1.06091 7.49836L12.2743 7.54186L19.0858 1H3.90558L1.06091 7.49836Z" fill="#007A7C"/>
<path fill-rule="evenodd" clip-rule="evenodd" d="M12.2743 7.54185L1.06091 7.49835L9.09034 10.5518L12.2743 7.54185Z" fill="#143737"/>
<path fill-rule="evenodd" clip-rule="evenodd" d="M8.92503 24.3924L1 27.3675L12.1786 27.4197L8.92503 24.3924Z" fill="#162D2C"/>
</svg>
