<svg width="64" height="39" viewBox="0 0 64 39" fill="none" xmlns="http://www.w3.org/2000/svg">
<path d="M48.0274 18.73C48.5846 19.0782 49.4208 19.3565 50.4658 19.5657C51.5108 19.8441 52.6255 19.9138 53.7403 19.9138C54.8551 19.9138 55.8303 19.7744 56.7363 19.496C57.6423 19.2176 58.4082 18.7998 59.1054 18.3122C59.7323 17.8246 60.2899 17.1981 60.6383 16.4322C60.9866 15.6662 61.1954 14.9002 61.1954 13.9256C61.1954 12.8116 60.847 11.837 60.2202 10.9315C59.5933 10.0958 58.4785 9.39961 56.9456 8.91203L53.9496 7.93742C52.8349 7.58931 51.9987 7.17146 51.5805 6.75362C51.1624 6.33577 50.9537 5.84819 50.9537 5.2217C50.9537 4.386 51.302 3.68978 51.9289 3.34166C52.6255 2.92382 53.5315 2.71517 54.7853 2.71517C56.3182 2.71517 57.6417 2.99355 58.8961 3.55086C59.2444 3.69033 59.5229 3.82924 59.7323 3.82924C60.0806 3.82924 60.2202 3.6206 60.2202 3.13302V2.29733C60.2202 2.01895 60.1504 1.74057 60.0114 1.6011C59.8718 1.39245 59.6631 1.18325 59.3845 1.04434C59.1757 0.904873 58.8274 0.76596 58.4785 0.696226C58.1302 0.55676 57.7121 0.48758 57.294 0.348113C56.8758 0.27838 56.388 0.139467 55.9006 0.139467C55.4127 -7.91701e-08 54.9254 0 54.4375 0C53.4623 0 52.6261 0.139467 51.7899 0.348113C50.9537 0.626493 50.1872 0.974606 49.5603 1.46219C48.9334 1.94977 48.4456 2.50653 48.0274 3.20275C47.6093 3.89898 47.4703 4.66494 47.4703 5.57036C47.4703 6.68444 47.8187 7.72878 48.5153 8.6342C49.212 9.60881 50.3268 10.305 51.9294 10.7926L54.9952 11.7672C56.0402 12.1153 56.7368 12.4634 57.155 12.8813C57.5731 13.2991 57.7121 13.7867 57.7121 14.3435C57.7121 15.1792 57.3637 15.8754 56.5973 16.363C55.8309 16.8506 54.8556 17.0592 53.4623 17.0592C52.6261 17.0592 51.7904 16.9895 50.9542 16.7808C50.118 16.6414 49.3516 16.363 48.5851 16.0149C48.3763 15.9451 48.167 15.8754 48.028 15.8062C47.8884 15.7365 47.7494 15.7365 47.6099 15.7365C47.2616 15.7365 47.122 15.9451 47.122 16.4327V17.4771C47.122 17.6857 47.1918 17.8949 47.2616 18.1035C47.4698 18.3819 47.6791 18.5208 48.0274 18.73Z" fill="white"/>
<path d="M14.4454 12.1851C14.4454 12.8813 14.3756 13.5078 14.2366 13.9954C14.097 14.4829 13.8883 14.97 13.5399 15.3181C12.9828 15.9446 12.2856 16.4321 11.5192 16.6408C10.7527 16.9192 9.98628 17.0586 9.28962 17.0586C8.3144 17.0586 7.54796 16.7803 7.06008 16.2927C6.57219 15.8051 6.29364 15.0391 6.29364 14.0645C6.29364 13.0202 6.64197 12.1845 7.33863 11.6277C8.0353 11.071 9.08029 10.7921 10.4736 10.7921C11.1005 10.7921 11.7972 10.8618 12.4944 10.9315C13.191 11.0013 13.8179 11.1402 14.4454 11.2796V12.1851V12.1851ZM12.007 8.425C11.2406 8.28553 10.4742 8.28553 9.7775 8.28553C7.61774 8.28553 5.87609 8.84229 4.55198 9.95636C3.22844 11.0704 2.601 12.5326 2.601 14.3429C2.601 16.0835 3.08888 17.4068 4.13388 18.4511C5.17887 19.4954 6.57219 19.983 8.38363 19.983C10.8917 19.983 12.9823 19.0084 14.6541 17.0586C14.8629 17.5462 15.0722 17.9641 15.281 18.3122C15.4898 18.6603 15.7689 19.0084 16.0475 19.2868C16.2562 19.4954 16.4656 19.5652 16.6743 19.5652C16.8139 19.5652 17.0227 19.4954 17.2315 19.3565L18.555 18.4511C18.8336 18.2424 18.9731 18.0332 18.9731 17.8246C18.9731 17.6851 18.9033 17.5462 18.8336 17.337C18.555 16.7803 18.2764 16.2927 18.1369 15.8051C17.9973 15.3175 17.9281 14.691 17.9281 13.9251V6.96281C17.9281 4.66493 17.371 2.92437 16.1865 1.74056C15.0019 0.556759 13.1905 0 10.6126 0C9.42807 0 8.3133 0.139466 7.2683 0.417846C6.29309 0.696226 5.38709 0.975159 4.62065 1.39245C4.3421 1.53192 4.13277 1.67083 4.06355 1.8103C3.92399 1.94976 3.92399 2.22814 3.92399 2.57626V3.6206C3.92399 4.03844 4.06355 4.31682 4.3421 4.31682C4.41188 4.31682 4.55088 4.31682 4.69043 4.24709C4.82998 4.17735 5.10854 4.10762 5.45687 3.96871C6.22331 3.69033 6.98975 3.41195 7.75619 3.27248C8.52263 3.06384 9.28907 2.9941 10.0555 2.9941C11.7274 2.9941 12.8422 3.34222 13.5394 3.96871C14.236 4.5952 14.5146 5.77901 14.5146 7.38066V8.91257C13.6091 8.70337 12.8427 8.56391 12.007 8.425Z" fill="white"/>
<path d="M25.175 18.3819C25.3145 18.7997 25.4535 19.0781 25.5931 19.2176C25.7326 19.357 26.0112 19.4262 26.4293 19.4262H28.2407C28.6588 19.4262 28.9374 19.3565 29.0769 19.2176C29.2165 19.0781 29.3555 18.7997 29.495 18.3819L32.7696 4.66491L36.1139 18.3819C36.1837 18.7997 36.3227 19.0781 36.532 19.2176C36.6715 19.357 37.0199 19.4262 37.3682 19.4262H39.1796C39.528 19.4262 39.8065 19.3565 40.0159 19.2176C40.1554 19.0781 40.3642 18.7997 40.434 18.3819L45.5897 1.94974C45.6595 1.74109 45.7293 1.53189 45.7293 1.46216C45.7293 1.32269 45.799 1.25351 45.799 1.11405C45.799 0.765932 45.6595 0.626465 45.3111 0.626465H43.3602C42.9421 0.626465 42.6635 0.696199 42.5239 0.835112C42.3844 0.974578 42.2454 1.25296 42.1058 1.6708L38.4132 15.9445L34.9986 1.60107C34.9288 1.18322 34.7898 0.904845 34.5804 0.765379C34.4409 0.625912 34.0926 0.556732 33.7442 0.556732H32.0026C31.5845 0.556732 31.3059 0.626465 31.1664 0.765379C31.0268 0.904845 30.8878 1.18322 30.7483 1.60107L27.4039 15.6662L23.8509 1.60107C23.7113 1.18322 23.5723 0.904845 23.4327 0.765379C23.2932 0.625912 23.0146 0.556732 22.5965 0.556732H20.5065C20.1582 0.556732 20.0187 0.696199 20.0187 1.04431C20.0187 1.18378 20.0884 1.46216 20.2274 1.88L25.175 18.3819Z" fill="white"/>
<path d="M56.7363 28.6869C48.9329 32.0292 40.3631 33.6308 32.6295 33.6308C21.1334 33.6308 9.98627 30.4978 0.998332 25.2058C0.231893 24.7182 -0.394992 25.5539 0.30167 26.1804C8.66217 33.7005 19.6703 38.226 31.9328 38.226C40.6416 38.226 50.8141 35.5103 57.8511 30.2886C58.8961 29.4529 57.9208 28.1994 56.7363 28.6869Z" fill="#F8991D"/>
<path d="M52.347 25.7626C51.7201 26.1804 51.8591 26.8069 52.4865 26.7372C54.7161 26.4588 59.8021 25.8318 60.6383 27.0156C61.5443 28.1296 59.6631 32.8643 58.8268 35.0227C58.5483 35.6492 59.1054 35.9281 59.7328 35.4405C63.4953 32.3075 64.4705 25.6928 63.704 24.7874C62.9371 23.7431 56.3182 22.9771 52.347 25.7626Z" fill="#F8991D"/>
</svg>
