<svg width="91" height="30" viewBox="0 0 91 30" fill="none" xmlns="http://www.w3.org/2000/svg">
<path d="M22.0763 0.874451H31.5453L18.8901 24.2506C18.8901 24.2506 16.7579 18.0577 15.8415 15.8477" fill="url(#paint0_linear_302:383)"/>
<path d="M24.4122 29.7787H31.5453V0.874451C31.5395 15.9792 25.1908 29.7787 24.4122 29.7787Z" fill="url(#paint1_linear_302:383)"/>
<path d="M18.8902 24.2505H13.0026L6.10352e-05 0.874402C2.30593 0.580951 6.91163 0.185572 9.19344 0L18.8902 24.2505Z" fill="url(#paint2_linear_302:383)"/>
<path d="M7.54039 15.0211C5.58781 22.7351 -0.00594476 30.0062 4.74225e-06 30.0002C6.48032 30.0002 7.87583 29.06 7.87583 28.5627C7.87583 28.2872 7.87583 19.6807 7.87583 15.6081C7.76209 15.4164 7.65421 15.2188 7.54039 15.0211Z" fill="url(#paint3_linear_302:383)"/>
<path d="M3.05176e-05 0.874451V30.0002C3.5455 24.1428 5.61199 20.3095 7.43866 14.8474C2.93471 6.8817 3.05176e-05 0.874451 3.05176e-05 0.874451Z" fill="url(#paint4_linear_302:383)"/>
<path d="M23.9211 28.6347L24.4122 29.7787V14.6019L23.9211 15.4223" fill="url(#paint5_linear_302:383)"/>
<path d="M24.3882 14.6317V29.7308L24.4061 29.7787C24.9152 29.7787 31.5394 13.4398 31.5394 0.874451C31.5395 0.874451 27.4966 9.30734 24.3882 14.6317Z" fill="url(#paint6_linear_302:383)"/>
<path d="M54.072 8.83777V20.9637H51.9763V12.3808L49.3818 20.9637H47.0363L44.3919 12.0315V20.9637H42.4456V8.83777H45.2902L48.2836 19.2671L51.3276 8.88781V8.83777" fill="white"/>
<path d="M59.761 16.0236H62.9544L61.3576 10.3846L59.761 16.0236ZM63.4535 17.7701H59.2619L58.3635 20.9636H56.1678L59.8604 8.83768H62.8545L66.7468 20.9636H64.5012L63.4535 17.7701Z" fill="white"/>
<path d="M72.236 16.0236V20.9636H70.0403V16.0236L66.1479 8.83768H68.4436L71.2379 14.3269L73.9328 8.83768H76.1281" fill="white"/>
<path d="M79.272 16.0236H82.4653L80.8688 10.3846L79.272 16.0236ZM82.9644 17.7701H78.7728L77.8744 20.9636H75.6788L79.3713 8.83768H82.3156L86.2578 20.9636H84.0121L82.9644 17.7701Z" fill="white"/>
<path d="M89.202 10.0853V9.98549C89.202 9.78601 89.0522 9.68609 88.8528 9.68609H88.6031V10.3348H88.8029C89.0522 10.3348 89.202 10.235 89.202 10.0853ZM89.5013 11.0336C89.5513 11.0336 89.5513 11.0336 89.5513 11.0336V11.1831C89.5013 11.2331 89.4513 11.2331 89.4513 11.2331C89.3019 11.2331 89.2019 11.1831 89.1521 11.0834L88.9027 10.5345C88.8527 10.5345 88.8527 10.5345 88.8527 10.5345H88.603V11.1832H88.3536V9.53666H88.8527C89.2019 9.53666 89.4513 9.68618 89.4513 9.98558V10.0854C89.4513 10.2851 89.3019 10.4346 89.102 10.4846L89.4013 10.9838C89.4014 11.0336 89.4514 11.0336 89.5013 11.0336ZM90.0504 10.1353C90.0504 9.83579 89.9005 9.53657 89.6512 9.33691C89.4514 9.13743 89.1522 9.08738 88.8528 9.08738C88.2038 9.03742 87.6552 9.48661 87.6052 10.1353V10.5844C87.6052 10.8836 87.7547 11.1831 88.0044 11.3828C88.2037 11.5822 88.553 11.682 88.8527 11.6323C89.1521 11.6821 89.4513 11.5823 89.7011 11.3828C89.9003 11.1831 90.0503 10.8836 90.0503 10.5844V10.1353H90.0504ZM90.2498 10.1353V10.5844C90.2498 10.9336 90.1004 11.2828 89.8505 11.5323C89.5513 11.7319 89.202 11.8819 88.8528 11.8319C88.4536 11.8319 88.104 11.7319 87.8546 11.4823C87.5553 11.2828 87.4055 10.9336 87.4055 10.5844V10.1353C87.4553 9.38678 88.104 8.83768 88.8528 8.93768C89.202 8.88772 89.5513 8.98738 89.8006 9.23691C90.1004 9.43656 90.2498 9.78601 90.2498 10.1353Z" fill="white"/>
<defs>
<linearGradient id="paint0_linear_302:383" x1="15.3958" y1="13.5513" x2="33.3322" y2="10.0649" gradientUnits="userSpaceOnUse">
<stop stop-color="#0F6067"/>
<stop offset="0.5" stop-color="#05ABAC"/>
<stop offset="1" stop-color="#58BEC4"/>
</linearGradient>
<linearGradient id="paint1_linear_302:383" x1="27.9522" y1="30.088" x2="30.5159" y2="0.784323" gradientUnits="userSpaceOnUse">
<stop stop-color="#117C83"/>
<stop offset="0.5" stop-color="#21B5B5"/>
<stop offset="1" stop-color="#7ED4D4"/>
</linearGradient>
<linearGradient id="paint2_linear_302:383" x1="13.1137" y1="1.27345" x2="6.35043" y2="22.0886" gradientUnits="userSpaceOnUse">
<stop stop-color="#9ACCD3"/>
<stop offset="0.5" stop-color="#72AEB3"/>
<stop offset="1" stop-color="#317D7F"/>
</linearGradient>
<linearGradient id="paint3_linear_302:383" x1="-1.61224" y1="25.0356" x2="9.74111" y2="21.3466" gradientUnits="userSpaceOnUse">
<stop stop-color="#21626E"/>
<stop offset="0.5" stop-color="#157C84"/>
<stop offset="1" stop-color="#03A3A5"/>
</linearGradient>
<linearGradient id="paint4_linear_302:383" x1="7.26437" y1="8.66367" x2="-7.26292" y2="22.2106" gradientUnits="userSpaceOnUse">
<stop stop-color="#0B7C81"/>
<stop offset="0.5" stop-color="#068D90"/>
<stop offset="1" stop-color="#16B1B1"/>
</linearGradient>
<linearGradient id="paint5_linear_302:383" x1="20.7014" y1="25.1954" x2="28.1239" y2="19.1847" gradientUnits="userSpaceOnUse">
<stop stop-color="#0A8A8F"/>
<stop offset="0.5" stop-color="#0F7C82"/>
<stop offset="1" stop-color="#1A5964"/>
</linearGradient>
<linearGradient id="paint6_linear_302:383" x1="31.9369" y1="17.8033" x2="24.0435" y2="12.8709" gradientUnits="userSpaceOnUse">
<stop stop-color="#256A77"/>
<stop offset="0.5" stop-color="#0D9499"/>
<stop offset="1" stop-color="#06A0A2"/>
</linearGradient>
</defs>
</svg>
