<svg width="122" height="26" viewBox="0 0 122 26" fill="none" xmlns="http://www.w3.org/2000/svg">
<path d="M42.9705 14.9751L42.245 17.0309H42.1845C42.0636 16.5673 41.8419 15.8619 41.4791 15.0154L37.5891 5.24017H33.7798V20.82H36.2992V11.2061C36.2992 10.6014 36.2992 9.91614 36.2791 9.06963C36.2589 8.64637 36.2186 8.32389 36.1985 8.08203H36.2589C36.3798 8.68668 36.5209 9.1301 36.6217 9.41227L41.2977 20.7797H43.0713L47.707 9.31149C47.8078 9.04948 47.9085 8.52544 48.0093 8.08203H48.0698C48.0093 9.23087 47.969 10.2588 47.9488 10.8836V20.7596H50.6295V5.19986H46.9612L42.9705 14.9751ZM53.169 9.59366H55.7891V20.7596H53.169V9.59366ZM54.4992 4.87738C54.0558 4.87738 53.693 5.03862 53.3907 5.32079C53.0884 5.60296 52.9271 5.96575 52.9271 6.40916C52.9271 6.83242 53.0884 7.19521 53.3907 7.47738C53.693 7.75955 54.0558 7.90064 54.4992 7.90064C54.9426 7.90064 55.3256 7.7394 55.6077 7.47738C55.9101 7.19521 56.0713 6.83242 56.0713 6.40916C56.0713 5.98591 55.9101 5.62312 55.6077 5.32079C55.3457 5.03862 54.9628 4.87738 54.4992 4.87738ZM65.0806 9.49289C64.5969 9.39211 64.093 9.33165 63.6093 9.33165C62.4202 9.33165 61.3318 9.59366 60.4248 10.1177C59.5178 10.6417 58.7922 11.3673 58.3287 12.2743C57.845 13.2014 57.6031 14.2696 57.6031 15.4991C57.6031 16.5673 57.845 17.5146 58.3085 18.3813C58.7721 19.2278 59.4171 19.913 60.2837 20.3766C61.1101 20.8402 62.0775 21.082 63.1659 21.082C64.4155 21.082 65.4837 20.82 66.3302 20.3363L66.3504 20.3161V17.8975L66.2496 17.9782C65.8667 18.2603 65.4233 18.5022 64.9798 18.6433C64.5163 18.8045 64.093 18.8851 63.7302 18.8851C62.6822 18.8851 61.8558 18.5828 61.2713 17.9177C60.6667 17.2727 60.3643 16.3859 60.3643 15.2774C60.3643 14.1285 60.6667 13.2216 61.2915 12.5565C61.9163 11.8913 62.7426 11.5487 63.7504 11.5487C64.5969 11.5487 65.4636 11.8309 66.2496 12.3952L66.3504 12.4758V9.91614L66.3302 9.89599C65.9876 9.7549 65.6047 9.59366 65.0806 9.49289ZM73.7271 9.41227C73.0822 9.41227 72.4775 9.61382 71.9535 10.0371C71.5101 10.3999 71.2078 10.9239 70.9457 11.5487H70.9256V9.59366H68.3054V20.7596H70.9256V15.0557C70.9256 14.0882 71.1271 13.282 71.5705 12.6975C72.014 12.0929 72.5783 11.7906 73.2636 11.7906C73.5054 11.7906 73.7473 11.851 74.0496 11.8913C74.3318 11.972 74.5333 12.0526 74.6744 12.1533L74.7752 12.234V9.61382L74.7147 9.59366C74.5333 9.47273 74.1705 9.41227 73.7271 9.41227ZM80.862 9.3518C79.0279 9.3518 77.5566 9.89599 76.5287 10.9642C75.4806 12.0324 74.9767 13.5037 74.9767 15.358C74.9767 17.0913 75.5008 18.5022 76.5085 19.5301C77.5163 20.5378 78.8868 21.0619 80.6 21.0619C82.3938 21.0619 83.8248 20.5177 84.8527 19.4293C85.9008 18.3409 86.4047 16.8898 86.4047 15.096C86.4047 13.3223 85.9209 11.9115 84.9333 10.8836C83.986 9.85568 82.5954 9.3518 80.862 9.3518ZM82.9581 17.9378C82.4744 18.5627 81.7085 18.865 80.7612 18.865C79.814 18.865 79.0481 18.5627 78.5039 17.8975C77.9597 17.2727 77.6977 16.3658 77.6977 15.2169C77.6977 14.0278 77.9798 13.1208 78.5039 12.4758C79.0481 11.8309 79.7938 11.5084 80.7411 11.5084C81.6682 11.5084 82.3938 11.8107 82.9178 12.4355C83.4419 13.0603 83.724 13.9673 83.724 15.1565C83.6837 16.3658 83.462 17.313 82.9581 17.9378ZM92.2496 14.2293C91.4233 13.8867 90.8992 13.6247 90.6574 13.403C90.4558 13.2014 90.355 12.9192 90.355 12.5565C90.355 12.2541 90.476 11.9518 90.7783 11.7502C91.0806 11.5487 91.4233 11.4479 91.9271 11.4479C92.3705 11.4479 92.8341 11.5285 93.2775 11.6495C93.7209 11.7704 94.124 11.9518 94.4465 12.1937L94.5473 12.2743V9.81537L94.4868 9.79521C94.1845 9.67428 93.7814 9.55335 93.2977 9.45258C92.814 9.37196 92.3705 9.33165 92.0078 9.33165C90.7581 9.33165 89.7302 9.63397 88.924 10.2991C88.1178 10.9239 87.7349 11.7704 87.7349 12.758C87.7349 13.282 87.8155 13.7456 87.9969 14.1285C88.1783 14.5115 88.4403 14.8743 88.8031 15.1766C89.1659 15.4588 89.6899 15.7813 90.4155 16.0836C91.0202 16.3456 91.4837 16.5471 91.7659 16.7084C92.0481 16.8696 92.2295 17.051 92.3705 17.1921C92.4713 17.3534 92.5318 17.5549 92.5318 17.8169C92.5318 18.5627 91.9674 18.9254 90.8186 18.9254C90.3752 18.9254 89.9116 18.8448 89.3674 18.6634C88.8233 18.482 88.3194 18.22 87.8961 17.9177L87.7954 17.8371V20.3968L87.8558 20.4169C88.2388 20.5983 88.7023 20.7192 89.2667 20.8603C89.831 20.9611 90.3349 21.0417 90.7783 21.0417C92.1287 21.0417 93.2372 20.7394 94.0233 20.0743C94.8295 19.4293 95.2527 18.603 95.2527 17.5347C95.2527 16.789 95.0512 16.1239 94.6078 15.62C94.0233 15.1363 93.2977 14.6324 92.2496 14.2293ZM102.166 9.3518C100.332 9.3518 98.8605 9.89599 97.8326 10.9642C96.8047 12.0324 96.2806 13.5037 96.2806 15.358C96.2806 17.0913 96.8046 18.5022 97.8124 19.5301C98.8202 20.5378 100.191 21.0619 101.904 21.0619C103.698 21.0619 105.129 20.5177 106.157 19.4293C107.205 18.3409 107.709 16.8898 107.709 15.096C107.709 13.3223 107.225 11.9115 106.237 10.8836C105.29 9.85568 103.899 9.3518 102.166 9.3518ZM104.242 17.9378C103.758 18.5627 102.992 18.865 102.045 18.865C101.078 18.865 100.332 18.5627 99.7876 17.8975C99.2434 17.2727 98.9814 16.3658 98.9814 15.2169C98.9814 14.0278 99.2636 13.1208 99.7876 12.4758C100.332 11.8309 101.078 11.5084 102.025 11.5084C102.932 11.5084 103.678 11.8107 104.202 12.4355C104.726 13.0603 105.008 13.9673 105.008 15.1565C105.008 16.3658 104.746 17.313 104.242 17.9378ZM121.716 11.7502V9.59366H119.076V6.28823L118.995 6.30839L116.496 7.05413L116.436 7.07428V9.59366H112.485V8.18281C112.485 7.53785 112.647 7.03397 112.929 6.71149C113.211 6.38901 113.634 6.22777 114.158 6.22777C114.521 6.22777 114.904 6.30839 115.327 6.48979L115.428 6.55025V4.27273L115.367 4.25258C115.005 4.13165 114.521 4.05103 113.896 4.05103C113.11 4.05103 112.425 4.23242 111.8 4.53475C111.175 4.87738 110.712 5.34095 110.369 5.96575C110.026 6.57041 109.845 7.25568 109.845 8.04172V9.59366H108.011V11.7301H109.845V20.7596H112.485V11.7502H116.436V17.4944C116.436 19.8526 117.544 21.0417 119.761 21.0417C120.124 21.0417 120.507 20.9813 120.87 20.9208C121.253 20.8402 121.535 20.7394 121.696 20.6588L121.716 20.6386V18.482L121.616 18.5627C121.454 18.6634 121.313 18.7441 121.071 18.8045C120.87 18.865 120.688 18.8851 120.547 18.8851C120.023 18.8851 119.66 18.7642 119.398 18.4619C119.157 18.1797 119.036 17.7161 119.036 17.0309V11.7502H121.716Z" fill="white"/>
<path d="M0 0H12.355V12.355H0V0Z" fill="#F25022"/>
<path d="M13.645 0H26V12.355H13.645V0Z" fill="#7FBA00"/>
<path d="M0 13.645H12.355V26.0001H0V13.645Z" fill="#00A4EF"/>
<path d="M13.645 13.645H26V26.0001H13.645V13.645Z" fill="#FFB900"/>
</svg>
