<svg width="106" height="31" viewBox="0 0 106 31" fill="none" xmlns="http://www.w3.org/2000/svg">
<path d="M92.742 30.0147C92.4855 30.0147 92.2305 29.9478 92.006 29.8178L89.6632 28.4316C89.3135 28.2358 89.4844 28.1666 89.5996 28.1264C90.0663 27.9644 90.1608 27.927 90.6589 27.6446C90.7107 27.6154 90.7796 27.6265 90.8331 27.6579L92.6329 28.7265C92.6982 28.7627 92.7903 28.7627 92.8502 28.7265L99.867 24.6766C99.9323 24.6394 99.9741 24.5642 99.9741 24.4868V16.3893C99.9741 16.3101 99.9321 16.2361 99.8652 16.1959L92.8514 12.1495C92.7868 12.1116 92.7005 12.1116 92.6352 12.1495L85.6231 16.1971C85.555 16.2361 85.5118 16.3125 85.5118 16.3893V24.4868C85.5118 24.5642 85.5548 24.6376 85.6224 24.6744L87.5446 25.7849C88.5876 26.3064 89.226 25.6922 89.226 25.0752V17.0801C89.226 16.9671 89.317 16.8779 89.4299 16.8779H90.3197C90.4311 16.8779 90.5231 16.9671 90.5231 17.0801V25.0752C90.5231 26.4671 89.7651 27.2654 88.4455 27.2654C88.0399 27.2654 87.7206 27.2654 86.8293 26.8261L84.9893 25.7668C84.5349 25.5041 84.2533 25.0128 84.2533 24.4868V16.3893C84.2533 15.8632 84.5347 15.372 84.9893 15.1104L92.006 11.0558C92.4501 10.8046 93.0402 10.8046 93.4807 11.0558L100.497 15.1104C100.951 15.3732 101.234 15.8632 101.234 16.3893V24.4868C101.234 25.0128 100.951 25.5023 100.497 25.7668L93.4807 29.818C93.2564 29.9477 93.0019 30.0147 92.742 30.0147Z" fill="white"/>
<path d="M94.9094 24.4357C91.8388 24.4357 91.1956 23.0264 91.1956 21.8442C91.1956 21.7318 91.2859 21.642 91.3985 21.642H92.3057C92.407 21.642 92.4915 21.7149 92.5073 21.814C92.6443 22.7375 93.0527 23.2036 94.9095 23.2036C96.3877 23.2036 97.017 22.8692 97.017 22.085C97.017 21.6329 96.8388 21.2972 94.5414 21.0722C92.6217 20.8824 91.4342 20.4582 91.4342 18.9222C91.4342 17.5064 92.6275 16.6621 94.6283 16.6621C96.8762 16.6621 97.9885 17.4423 98.1294 19.1161C98.1346 19.1738 98.1143 19.2293 98.0758 19.2723C98.0373 19.3125 97.9838 19.3369 97.9272 19.3369H97.0165C96.9222 19.3369 96.8388 19.27 96.8196 19.1785C96.6011 18.2067 96.0698 17.8962 94.6283 17.8962C93.0144 17.8962 92.8268 18.4584 92.8268 18.8796C92.8268 19.39 93.0483 19.5386 95.2273 19.827C97.3836 20.1118 98.4079 20.5156 98.4079 22.0311C98.4076 23.56 97.1328 24.4357 94.9094 24.4357Z" fill="white"/>
<path d="M105.027 15.9437C105.027 16.6877 104.419 17.2959 103.675 17.2959C102.938 17.2959 102.323 16.6949 102.323 15.9437C102.323 15.178 102.953 14.5911 103.675 14.5911C104.405 14.5911 105.027 15.178 105.027 15.9437ZM102.541 15.9398C102.541 16.5696 103.049 17.0778 103.671 17.0778C104.301 17.0778 104.809 16.5589 104.809 15.9398C104.809 15.3103 104.294 14.8094 103.671 14.8094C103.056 14.8096 102.541 15.3029 102.541 15.9398ZM103.167 15.1851H103.69C103.868 15.1851 104.219 15.1851 104.219 15.5859C104.219 15.865 104.04 15.9221 103.933 15.9579C104.14 15.9723 104.155 16.1082 104.183 16.3014C104.198 16.423 104.219 16.6306 104.262 16.7021H103.94C103.933 16.6308 103.882 16.2442 103.882 16.2229C103.862 16.1369 103.832 16.0942 103.725 16.0942H103.461V16.7021H103.167V15.1851H103.167ZM103.454 15.8504H103.689C103.882 15.8504 103.918 15.7146 103.918 15.6359C103.918 15.4282 103.775 15.4282 103.696 15.4282H103.454V15.8504Z" fill="white"/>
<path d="M16.6749 15.9039C16.6749 15.5806 16.5047 15.2834 16.2256 15.1232L8.78636 10.842C8.6606 10.7681 8.51956 10.7296 8.37677 10.7236C8.36395 10.7236 8.31038 10.7236 8.29984 10.7236C8.15775 10.7294 8.01671 10.7679 7.88902 10.842L0.449812 15.1232C0.172478 15.2834 0 15.5806 0 15.9039L0.0163344 27.432C0.0163344 27.5922 0.0995875 27.7415 0.240626 27.82C0.378678 27.9027 0.5494 27.9027 0.686925 27.82L5.10812 25.2884C5.38774 25.1224 5.55793 24.8292 5.55793 24.5089V19.1229C5.55793 18.8018 5.72795 18.5046 6.00652 18.3452L7.88902 17.2609C8.02935 17.18 8.18269 17.1403 8.33936 17.1403C8.49252 17.1403 8.64989 17.18 8.78618 17.2609L10.6682 18.3452C10.9467 18.5048 11.1174 18.802 11.1174 19.1229V24.5089C11.1174 24.8292 11.2899 25.1241 11.5678 25.2884L15.9878 27.82C16.1263 27.9027 16.2995 27.9027 16.437 27.82C16.574 27.7413 16.6603 27.5922 16.6603 27.432L16.6749 15.9039Z" fill="white"/>
<path d="M52.4696 0.0568458C52.3303 -0.0206112 52.1605 -0.0188548 52.023 0.0617636C51.8858 0.142558 51.8013 0.289919 51.8013 0.449224V11.8658C51.8013 11.978 51.7413 12.082 51.6443 12.1382C51.547 12.1944 51.427 12.1944 51.3296 12.1382L49.4664 11.0647C49.1883 10.9045 48.8464 10.9049 48.5685 11.065L41.1263 15.36C40.8481 15.5205 40.6768 15.8171 40.6768 16.138V24.7296C40.6768 25.0507 40.8481 25.3472 41.1261 25.508L48.568 29.8061C48.8462 29.9667 49.1887 29.9667 49.4669 29.8061L56.9098 25.508C57.1878 25.3473 57.3591 25.0507 57.3591 24.7296V3.31285C57.3591 2.98721 57.1829 2.68669 56.8982 2.52792L52.4696 0.0568458ZM51.7792 21.9067C51.7792 21.9868 51.7363 22.0611 51.6668 22.101L49.1116 23.5739C49.0422 23.6138 48.9567 23.6138 48.8873 23.5739L46.3321 22.101C46.2625 22.0611 46.2197 21.9868 46.2197 21.9067V18.9562C46.2197 18.8761 46.2625 18.8018 46.3319 18.7616L48.8871 17.2857C48.9567 17.2454 49.0424 17.2454 49.1119 17.2857L51.6671 18.7616C51.7365 18.8018 51.7794 18.8761 51.7794 18.9562L51.7792 21.9067Z" fill="white"/>
<path d="M77.2508 18.8791C77.5276 18.7184 77.698 18.4222 77.698 18.1021V16.02C77.698 15.6998 77.5276 15.4035 77.2504 15.2428L69.8562 10.9497C69.578 10.7879 69.2344 10.7877 68.9557 10.9484L61.5163 15.2433C61.2383 15.4039 61.067 15.7004 61.067 16.0214V24.6107C61.067 24.9337 61.2404 25.2318 61.5209 25.3914L68.9141 29.6042C69.1866 29.7598 69.5209 29.7615 69.7952 29.6091L74.267 27.1236C74.4089 27.0447 74.4973 26.8958 74.498 26.7339C74.4992 26.5719 74.413 26.4219 74.2725 26.3411L66.7858 22.0441C66.646 21.964 66.5601 21.8151 66.5601 21.6542V18.9623C66.5601 18.8018 66.6457 18.6532 66.785 18.5731L69.115 17.2298C69.2536 17.1497 69.425 17.1497 69.5636 17.2298L71.8948 18.5731C72.0341 18.6532 72.1196 18.8018 72.1196 18.9623V21.0802C72.1196 21.2411 72.2057 21.3897 72.3448 21.4698C72.4841 21.5502 72.6557 21.5495 72.7946 21.4689L77.2508 18.8791Z" fill="white"/>
<path d="M69.2962 18.4766C69.3496 18.4456 69.4153 18.4456 69.4687 18.4766L70.8967 19.3003C70.9501 19.3312 70.9829 19.3879 70.9829 19.4498V21.0987C70.9829 21.1605 70.9501 21.2172 70.8967 21.2481L69.4687 22.0719C69.4153 22.1028 69.3496 22.1028 69.2962 22.0719L67.8693 21.2481C67.8159 21.2172 67.7831 21.1605 67.7831 21.0987V19.4498C67.7831 19.3879 67.8159 19.3312 67.8693 19.3003L69.2962 18.4766Z" fill="white"/>
<path fill-rule="evenodd" clip-rule="evenodd" d="M28.547 29.75C28.4178 29.7404 28.2901 29.702 28.1724 29.634L20.779 25.3705C20.5034 25.211 20.3206 24.9167 20.3206 24.5982L20.3206 24.5982L20.3206 16.0713L20.3206 16.0712C20.3206 15.9916 20.3323 15.9135 20.3542 15.8387C20.4198 15.6141 20.5768 15.4188 20.7838 15.2993L28.1729 11.0392C28.2967 10.9676 28.4343 10.9285 28.5733 10.9216C28.7449 10.9112 28.9189 10.9504 29.0729 11.0394L36.455 15.2995C36.7311 15.4588 36.9009 15.753 36.9009 16.0718V24.5984C36.9009 24.9168 36.7311 25.2112 36.4552 25.3707L29.073 29.6342C28.9111 29.7277 28.7271 29.7663 28.547 29.75Z" fill="white"/>
</svg>
