<svg width="106" height="23" viewBox="0 0 106 23" fill="none" xmlns="http://www.w3.org/2000/svg">
<path d="M10.2658 0.0757615C6.71495 0.480347 3.66851 2.34818 1.76532 5.28143C1.03902 6.39404 0.41359 7.94495 0.131138 9.34077C-0.0437127 10.2106 -0.0437127 12.7865 0.131138 13.6564C0.850717 17.2235 3.09015 20.1634 6.26437 21.7413C7.59593 22.4021 8.82661 22.7595 10.3465 22.9214C10.7701 22.9686 13.8031 22.9955 18.9343 22.9955C25.6325 22.9955 26.9909 22.9821 27.6634 22.8944C30.4543 22.5303 32.7274 21.4042 34.6104 19.4419C35.4712 18.5451 36.0227 17.7764 36.5607 16.7245C37.4282 15.0185 37.7913 13.4743 37.7913 11.4986C37.7913 9.52284 37.4282 7.97867 36.5607 6.27267C36.0227 5.22074 35.4712 4.45203 34.6104 3.5552C32.7274 1.59296 30.4543 0.466861 27.6634 0.102734C26.9909 0.0150736 25.6594 0.00158745 18.82 0.00833054C14.3949 0.0150736 10.5415 0.042046 10.2658 0.0757615ZM27.2061 7.84381C28.5646 8.21468 29.6742 9.28683 30.0037 10.5545C30.1315 11.067 30.1315 11.9301 30.0037 12.4426C29.6675 13.7305 28.5511 14.8027 27.1725 15.1533C26.7421 15.268 26.1436 15.2747 18.8738 15.2747C11.5637 15.2747 11.0122 15.268 10.602 15.1533C9.26373 14.7892 8.34241 13.9868 7.86493 12.773C7.70353 12.3549 7.68335 12.2201 7.68335 11.4986C7.68335 10.7771 7.70353 10.6422 7.86493 10.2241C8.39621 8.86876 9.53274 7.98541 11.0391 7.76289C11.2611 7.72917 14.8926 7.70895 19.1092 7.71569C26.1436 7.72917 26.8094 7.73592 27.2061 7.84381ZM81.4839 9.00362V16.5896H83.8376V1.41764H81.4839V9.00362ZM100.919 6.38056C99.8231 6.62331 98.9488 7.2639 98.5117 8.15399C98.2696 8.63949 98.2628 8.68669 98.2628 9.36775C98.2628 10.0016 98.283 10.123 98.4444 10.4736C98.8412 11.3165 99.6684 11.8492 101.128 12.2066C103.011 12.6651 103.434 12.8337 103.683 13.2383C104.107 13.9396 103.441 14.6206 102.258 14.688C101.316 14.742 100.28 14.452 99.4532 13.9126C99.2447 13.771 99.0362 13.6361 98.9892 13.6024C98.9353 13.5687 98.7067 13.8249 98.3032 14.3576C97.9669 14.8027 97.6845 15.1938 97.6778 15.2275C97.6172 15.4568 99.3456 16.4075 100.28 16.6705C101.007 16.8661 102.735 16.8863 103.408 16.7042C104.504 16.4075 105.317 15.7872 105.741 14.9173C105.99 14.4116 105.997 14.3914 105.997 13.6226C105.997 12.8809 105.99 12.827 105.775 12.3954C105.304 11.4311 104.423 10.8984 102.52 10.4197C101.867 10.2578 101.215 10.0623 101.067 9.98811C100.496 9.69142 100.354 9.22614 100.717 8.80807C100.98 8.51137 101.417 8.36303 102.036 8.36303C102.708 8.36303 103.132 8.46417 103.831 8.78784C104.174 8.94293 104.443 9.03059 104.477 8.99688C104.665 8.7811 105.56 7.49317 105.56 7.43248C105.56 7.31785 104.833 6.89303 104.282 6.68399C103.246 6.27941 101.921 6.16478 100.919 6.38056ZM63.0371 6.58285C61.0936 7.01441 59.8091 8.26188 59.2845 10.2174C59.1635 10.6422 59.1366 10.9456 59.1366 11.6671C59.1299 12.7258 59.2375 13.2315 59.6275 14.0609C60.1185 15.1196 60.8044 15.8276 61.8132 16.3199C62.6672 16.7379 63.0775 16.8189 64.2005 16.8256C65.3505 16.8256 65.754 16.7379 66.6552 16.2929C67.247 15.9962 67.9666 15.4433 67.9666 15.2882C67.9666 15.241 67.6101 14.8499 67.173 14.4116L66.3727 13.6092L65.9827 13.8856C64.6847 14.7959 62.8085 14.5397 62.0015 13.3327C61.645 12.8 61.4971 12.3145 61.4904 11.6671C61.4769 10.359 62.1158 9.40821 63.259 9.03059C64.0593 8.76087 65.1555 8.88224 65.8549 9.3138C65.9692 9.38123 66.097 9.44192 66.1306 9.44192C66.2046 9.44192 67.5631 7.72243 67.5631 7.63477C67.5631 7.47294 66.3055 6.81886 65.6464 6.63679C65.0681 6.4817 63.6222 6.44799 63.0371 6.58285ZM51.1002 6.67051C50.8312 6.73794 50.347 6.92675 50.0242 7.08184C49.5467 7.31785 49.3248 7.48642 48.8338 7.98541C48.4438 8.37651 48.1479 8.75412 48.0067 9.02385C47.119 10.7096 47.119 12.6247 48.0067 14.3104C48.1479 14.5802 48.4438 14.9578 48.8338 15.3489C49.3248 15.8479 49.5467 16.0097 50.0107 16.239C50.811 16.6368 51.4768 16.7919 52.3779 16.7919C53.306 16.7919 53.9112 16.657 54.6846 16.2862C55.6799 15.8074 56.413 15.0724 56.9039 14.0609C57.3208 13.2181 57.4352 12.6921 57.4352 11.6671C57.4352 10.6422 57.3208 10.1162 56.9039 9.27334C56.413 8.25514 55.6934 7.53362 54.6846 7.04812C54.3551 6.88629 53.8642 6.71097 53.5952 6.65028C52.9361 6.50193 51.7391 6.51542 51.1002 6.67051ZM53.6221 9.1722C55.6329 10.1095 55.6059 13.2248 53.5884 14.1823C53.1648 14.3846 53.0908 14.3981 52.3981 14.3981C51.7122 14.3981 51.6247 14.3846 51.2212 14.1891C49.8359 13.5282 49.2844 11.7683 50.004 10.332C50.6563 9.03733 52.2502 8.52486 53.6221 9.1722ZM69.399 9.96114C69.4192 12.7393 69.4394 13.2518 69.5402 13.6564C69.937 15.2477 71.0466 16.3536 72.5799 16.6975C73.2793 16.8526 74.4764 16.7986 75.0951 16.5896C75.6062 16.4143 76.0501 16.1985 76.3661 15.9558C76.4939 15.8613 76.6217 15.8007 76.6486 15.8209C76.6822 15.8411 76.7091 16.0232 76.7091 16.2255V16.5896H78.7939V6.74468H76.4401V9.42169C76.4401 10.9119 76.4065 12.301 76.3729 12.5437C76.1644 13.8519 75.2901 14.6071 73.9989 14.5936C73.5416 14.5869 73.4206 14.5599 73.0305 14.3576C72.2908 13.98 71.9276 13.3597 71.7998 12.2201C71.7662 11.8964 71.7326 10.5343 71.7326 9.18568V6.74468H69.3654L69.399 9.96114ZM86.3461 9.72513C86.3663 11.3974 86.4201 12.9281 86.4604 13.2113C86.7361 15.0185 87.792 16.2322 89.4598 16.657C90.7577 16.9942 92.3717 16.7042 93.3334 15.9625L93.6495 15.7197L93.6898 16.158L93.7369 16.5896H95.8082V6.74468H93.4544V9.18568C93.4544 12.6651 93.3805 13.1843 92.7954 13.8317C92.217 14.479 91.3226 14.7487 90.4954 14.5397C89.7153 14.3374 89.2042 13.8452 88.9352 13.0292C88.794 12.5977 88.7873 12.4561 88.7604 9.6577L88.7402 6.74468H86.3057L86.3461 9.72513Z" fill="white"/>
</svg>
