<svg width="146" height="31" viewBox="0 0 146 31" fill="none" xmlns="http://www.w3.org/2000/svg">
<path d="M48.1517 15.1893H44.1807V20.4353H42.6258V7.05688H48.3408C51.2193 7.18329 52.7321 8.51059 52.9633 10.9756C52.9002 13.7355 51.2824 15.1261 48.1517 15.1893ZM47.9206 8.32098H44.1807V13.862H47.8996C50.1898 13.862 51.3244 12.8928 51.3244 10.9756C51.2193 9.22691 50.0847 8.32098 47.9206 8.32098ZM59.2666 10.4278C62.1451 10.5542 63.7209 12.3029 63.8259 15.6106C63.7629 18.9184 62.2081 20.6038 59.0775 20.667C56.1359 20.4774 54.5601 18.8551 54.392 15.716C54.5181 12.2397 56.1569 10.491 59.2666 10.4278ZM59.1615 19.5925C61.1996 19.5293 62.2921 18.202 62.3552 15.6106C62.2921 13.0824 61.2206 11.7551 59.1615 11.6287C57.1234 11.6919 56.0939 13.0824 55.9678 15.6738C56.0309 18.0756 57.1024 19.4029 59.1615 19.5925ZM73.2179 13.0192L71.7051 13.251C71.4109 12.1133 70.6335 11.5023 69.3098 11.5023C67.797 11.5655 67.0196 12.1133 67.0196 13.1878C66.8936 13.9673 67.797 14.5151 69.73 14.8732H69.8561C70.1503 14.9364 70.4654 14.9996 70.7596 15.105C72.6926 15.5263 73.6381 16.4323 73.5751 17.7596C73.512 19.5715 72.1883 20.4774 69.5409 20.5406C67.0196 20.6038 65.5699 19.6979 65.0866 17.7175L66.5364 17.4225C66.7675 18.9394 67.797 19.6557 69.4149 19.5925C71.0327 19.5293 71.9362 18.9394 71.9992 17.7807C72.0623 17.0011 71.3899 16.4534 69.9612 16.0952H69.7721C69.4779 16.032 69.1627 15.9056 68.8686 15.8634C66.5154 15.4421 65.3808 14.5993 65.5068 13.2088C65.5699 11.4602 66.8305 10.491 69.1207 10.4278C71.4109 10.4278 72.7346 11.2705 73.2179 13.0192ZM77.7773 7.16222V10.6596H79.8784V11.7973H77.7773V18.0546C77.7142 19.0869 78.0714 19.5715 78.9119 19.5083C79.3321 19.5083 79.6262 19.4451 79.8153 19.3187L80.0465 20.0982C79.6262 20.3299 79.0799 20.5195 78.3656 20.5195C76.9158 20.5828 76.2014 19.8032 76.2645 18.2863V11.7762H74.7097V10.6385H76.2645V7.58359L77.7773 7.16222ZM88.4298 10.5964H89.8796V19.0237C90.0687 22.3946 88.4929 24.0169 85.1311 23.8483C83.1981 23.7851 81.9374 23.132 81.2231 21.8047L82.4837 21.5098C83.093 22.2261 84.0385 22.6475 85.2572 22.7107C87.4213 22.7739 88.4509 21.7415 88.4509 19.6347V18.3284C87.8415 19.4661 86.7069 20.0771 85.0261 20.0771C82.3156 20.0139 80.9919 18.4548 80.9289 15.3789C80.9919 12.2397 82.4417 10.6174 85.1311 10.491C86.6859 10.491 87.8415 11.102 88.4298 12.3029V10.5964ZM88.4298 15.737V14.5361C88.3038 12.7243 87.3583 11.7551 85.6144 11.6498C83.5763 11.713 82.5468 12.9771 82.4207 15.3789C82.4837 17.7807 83.4923 19.0448 85.4883 19.108C87.3373 18.9816 88.3668 17.9071 88.4298 15.737ZM93.5985 15.1893V20.3721H92.1488V10.6596H93.5985V12.4714C94.0818 11.1441 94.9222 10.491 96.1829 10.4278C96.7922 10.4278 97.4436 10.6174 97.9899 10.9124L97.3805 12.3029C97.0233 12.0079 96.5401 11.8183 95.9308 11.8183C94.439 11.8815 93.6616 13.0192 93.5985 15.1893ZM106.331 17.4225L107.886 17.6543C107.277 19.5925 105.785 20.5406 103.369 20.4774C100.175 20.351 98.5572 18.7287 98.4941 15.5896C98.6202 12.2186 100.238 10.4699 103.243 10.3435C106.31 10.4067 107.802 12.1554 107.865 15.6528V16.0109H100.049C100.112 18.181 101.184 19.3187 103.285 19.4451C105.008 19.4661 105.974 18.7498 106.331 17.4225ZM100.091 14.9364H106.331C106.268 12.7664 105.26 11.6919 103.201 11.6287C101.289 11.7551 100.196 12.8296 100.091 14.9364ZM109.462 16.4534L111.017 15.9688C111.248 18.3284 112.635 19.4661 115.114 19.4029C117.341 19.3397 118.476 18.497 118.602 16.8115C118.728 15.6106 117.635 14.7679 115.24 14.2201C115.177 14.2201 115.114 14.2201 115.114 14.1569C114.988 14.0937 114.757 14.0305 114.399 13.9673C111.269 13.4195 109.777 12.2186 109.882 10.4067C110.008 8.11029 111.626 6.9094 114.631 6.84619C117.698 6.84619 119.442 8.04709 119.925 10.4067L118.244 10.8281C117.95 9.07944 116.732 8.1735 114.757 8.11029C112.782 8.1735 111.689 8.95303 111.521 10.4067C111.395 11.4812 112.593 12.345 115.072 12.8085C115.198 12.8085 115.366 12.8717 115.618 12.9349C115.849 12.9981 116.038 12.9981 116.164 13.0614C119.043 13.7777 120.367 15.0418 120.262 16.8537C120.072 19.2554 118.392 20.5195 115.219 20.646C111.983 20.7302 110.05 19.3397 109.462 16.4534ZM130.137 20.3721L133.33 23.448L131.523 23.9958L128.582 20.5617C124.38 20.4353 122.153 18.202 122.026 13.862C122.216 9.39546 124.38 7.12008 128.582 6.93047C132.616 7.16222 134.717 9.52187 135.011 13.7987C134.885 17.2961 133.267 19.5293 130.137 20.3721ZM123.644 13.7355C123.77 17.2961 125.388 19.108 128.393 19.2765C131.586 19.1501 133.204 17.2961 133.267 13.7355C133.078 10.2382 131.46 8.36311 128.456 8.19457C125.388 8.42632 123.77 10.3014 123.644 13.7355ZM146 20.4353H137.217V7.05688H138.73V19.2344H146V20.4353Z" fill="white"/>
<path d="M11.0651 8.54C11.6539 8.54 12.1342 8.58648 12.4441 8.8034C13.3273 9.46967 13.6371 12.832 13.2343 14.242C13.0174 15.0942 12.661 15.7914 12.3511 16.5506L11.8243 18.2395C9.82551 18.2395 8.67892 16.7831 8.36903 15.0477C8.1831 14.1645 8.40002 13.1419 8.53947 12.2587L8.4465 9.56263C8.84936 9.34571 9.2832 9.11329 9.68606 8.89637L11.0651 8.54Z" fill="white"/>
<path d="M23.9255 8.44703L23.6156 11.329L23.8325 13.994C24.0029 15.0167 23.6621 15.8534 23.5226 16.6126C23.4761 16.6126 23.4761 16.6591 23.4296 16.6591L22.9493 15.59C22.1901 14.3039 21.4309 12.9714 20.9505 11.422C20.7801 10.8022 20.6406 9.64011 20.997 9.11329C21.4928 8.35407 22.7324 8.40055 23.9255 8.44703Z" fill="white"/>
<path d="M11.4214 21.0285L12.8779 19.4326C14.1175 19.4791 13.8541 20.8116 13.2808 21.3539C12.0877 22.3301 10.6777 22.454 8.98881 21.8807L8.94232 21.7878C9.73254 21.5553 10.8017 21.4314 11.4214 21.0285Z" fill="white"/>
<path d="M24.0494 19.3086C24.4988 19.3861 24.8551 19.696 25.3819 19.789C26.4046 19.9749 27.4272 19.665 28.3569 19.5721C27.6906 20.4242 24.7622 21.4469 23.2127 20.6877C23.1662 19.7115 23.4296 19.6185 24.0494 19.3086Z" fill="white"/>
<path d="M3.89113 1.21112L5.48706 1.04068C7.34639 1.08717 8.67892 1.58299 10.0734 1.8309V1.87738C8.38452 4.09309 7.98167 5.28616 7.45486 8.74143L7.54782 12.0727L7.37738 13.8856C7.06749 16.0083 8.1831 17.2014 9.0198 18.1776L6.35475 21.199C6.09135 21.4159 5.73497 21.8652 5.16168 21.7258C4.01509 21.4624 3.1319 19.3861 2.68256 18.317C1.36554 15.2181 -1.16006 7.71879 0.606307 3.73672C1.1951 2.45068 2.38817 1.56749 3.89113 1.21112Z" fill="white"/>
<path d="M13.9006 1.05618L14.7373 0.963209C19.6645 0.994198 22.4535 3.92265 23.8015 7.47088C20.7956 7.25396 19.1532 8.49352 20.0828 11.5924C20.8421 14.1645 22.2521 16.3337 23.5846 18.379C23.1352 18.6889 22.7324 18.7663 22.469 19.2157C22.0661 19.8819 22.2831 21.075 22.1126 21.9582C21.4928 25.367 22.1126 29.0856 18.9672 30.0618C18.3939 30.2322 17.5572 30.4956 16.798 30.2787C14.3189 29.5815 14.7218 25.274 14.7218 22.1286C14.7218 20.3933 14.8612 19.1072 13.5752 18.6269C13.3582 18.5804 13.0484 18.441 12.7385 18.5339H12.692L13.4047 16.4887C13.6836 15.8689 13.9935 15.2026 14.164 14.4434C14.3809 13.5602 14.3809 12.2742 14.2104 11.3445C13.8231 8.94285 13.3737 6.95957 10.2284 7.79627C9.60859 7.9822 9.0198 8.2456 8.49298 8.50901C8.63243 5.36364 9.99595 2.52815 12.3511 1.50552L13.9006 1.05618Z" fill="white"/>
<path d="M19.0447 0.916726C19.5715 0.823759 20.0673 0.746287 20.5942 0.65332C23.6466 0.65332 25.3355 1.2731 27.1328 2.55914C27.5822 2.91551 28.1555 3.41133 28.3724 3.93815C28.8062 4.99177 28.5893 6.89759 28.3259 8.01319C27.6596 10.9416 26.6835 13.6377 25.351 15.8999C24.9946 16.4887 24.7777 17.1859 24.3283 17.6352V17.7282C24.0959 17.5423 24.7622 16.0393 24.8551 15.3731C25.1185 13.8701 24.3283 12.6305 24.5917 11.205C24.7312 10.3219 25.1185 8.77242 24.9016 7.74978C24.4058 5.44111 22.6394 3.27188 20.997 2.07881C20.4237 1.67595 19.711 1.41255 19.1377 0.963209L19.0447 0.916726Z" fill="white"/>
</svg>
