<svg width="93" height="32" viewBox="0 0 93 32" fill="none" xmlns="http://www.w3.org/2000/svg">
<path d="M35.3887 16.0037C35.3887 13.6232 32.4529 11.3674 27.9518 9.96841C28.9905 5.31014 28.5288 1.60403 26.4947 0.417486C26.0258 0.139162 25.4776 0.00732422 24.8789 0.00732422V1.64065C25.2107 1.64065 25.4776 1.70657 25.7012 1.83108C26.6822 2.40238 27.1078 4.5777 26.776 7.3756C26.6966 8.06408 26.5668 8.78919 26.4081 9.52895C24.9943 9.17738 23.4506 8.90638 21.8276 8.7306C20.8538 7.3756 19.8439 6.14511 18.8269 5.06843C21.1784 2.84916 23.3857 1.63333 24.8861 1.63333V0C22.9024 0 20.3056 1.43557 17.6799 3.92584C15.0543 1.45022 12.4575 0.0292974 10.4738 0.0292974V1.66262C11.967 1.66262 14.1815 2.87114 16.533 5.07576C15.5231 6.15244 14.5133 7.3756 13.5539 8.7306C11.9237 8.90638 10.38 9.17738 8.9662 9.53627C8.80029 8.80384 8.67767 8.09338 8.59111 7.41222C8.25208 4.61433 8.67045 2.439 9.64426 1.86038C9.86066 1.72854 10.142 1.66995 10.4738 1.66995V0.0366216C9.86787 0.0366216 9.31965 0.168459 8.84357 0.446784C6.81662 1.63332 6.36218 5.33211 7.40812 9.97573C2.92141 11.382 0 13.6306 0 16.0037C0 18.3841 2.93583 20.64 7.43697 22.0389C6.39825 26.6972 6.8599 30.4033 8.89407 31.5898C9.36294 31.8681 9.91115 32 10.5171 32C12.5007 32 15.0976 30.5644 17.7232 28.0741C20.3489 30.5498 22.9457 31.9707 24.9294 31.9707C25.5353 31.9707 26.0835 31.8389 26.5596 31.5605C28.5865 30.374 29.041 26.6752 27.995 22.0316C32.4673 20.6326 35.3887 18.3767 35.3887 16.0037ZM25.9969 11.1183C25.73 12.0632 25.3982 13.0373 25.0231 14.0114C24.7274 13.4255 24.4172 12.8395 24.0782 12.2536C23.7464 11.6677 23.3929 11.0964 23.0395 10.5397C24.0638 10.6935 25.052 10.884 25.9969 11.1183ZM22.6932 18.9187C22.1306 19.9075 21.5535 20.845 20.9548 21.7166C19.88 21.8118 18.7908 21.8631 17.6944 21.8631C16.6051 21.8631 15.5159 21.8118 14.4484 21.724C13.8496 20.8524 13.2654 19.9222 12.7027 18.9407C12.1545 17.9812 11.6568 17.0071 11.2023 16.0256C11.6496 15.0442 12.1545 14.0627 12.6955 13.1032C13.2581 12.1144 13.8352 11.1769 14.4339 10.3053C15.5087 10.2101 16.5979 10.1588 17.6944 10.1588C18.7836 10.1588 19.8728 10.2101 20.9404 10.298C21.5391 11.1696 22.1234 12.0998 22.686 13.0812C23.2342 14.0407 23.7319 15.0149 24.1864 15.9963C23.7319 16.9778 23.2342 17.9592 22.6932 18.9187ZM25.0231 17.9666C25.4126 18.948 25.7445 19.9295 26.0186 20.8817C25.0736 21.116 24.0782 21.3138 23.0467 21.4676C23.4001 20.9036 23.7536 20.325 24.0854 19.7317C24.4172 19.1458 24.7274 18.5525 25.0231 17.9666ZM17.7088 25.7816C17.0379 25.0785 16.3671 24.2948 15.7035 23.4378C16.3527 23.4671 17.0163 23.4891 17.6871 23.4891C18.3652 23.4891 19.036 23.4745 19.6925 23.4378C19.0433 24.2948 18.3724 25.0785 17.7088 25.7816ZM12.3421 21.4676C11.3178 21.3138 10.3295 21.1234 9.38457 20.889C9.65147 19.9441 9.98328 18.97 10.3584 17.9959C10.6541 18.5818 10.9643 19.1678 11.3033 19.7537C11.6424 20.3397 11.9886 20.911 12.3421 21.4676ZM17.6727 6.22568C18.3436 6.92881 19.0144 7.71252 19.678 8.56946C19.0288 8.54017 18.3652 8.51819 17.6944 8.51819C17.0163 8.51819 16.3455 8.53284 15.689 8.56946C16.3383 7.71252 17.0091 6.92881 17.6727 6.22568ZM12.3348 10.5397C11.9814 11.1037 11.6279 11.6823 11.2961 12.2756C10.9643 12.8615 10.6541 13.4475 10.3584 14.0334C9.96886 13.052 9.63704 12.0705 9.36294 11.1183C10.3079 10.8913 11.3033 10.6935 12.3348 10.5397ZM5.80675 19.7098C3.25322 18.6038 1.60136 17.1536 1.60136 16.0037C1.60136 14.8537 3.25322 13.3962 5.80675 12.2975C6.4271 12.0265 7.10515 11.7848 7.80485 11.5578C8.21601 12.9934 8.75701 14.4875 9.42786 16.0183C8.76423 17.5418 8.23044 19.0286 7.82649 20.4568C7.11237 20.2298 6.43431 19.9808 5.80675 19.7098ZM9.68754 30.1762C8.70652 29.6049 8.28093 27.4296 8.61275 24.6317C8.69209 23.9432 8.82193 23.2181 8.98063 22.4784C10.3944 22.8299 11.9381 23.1009 13.5611 23.2767C14.5349 24.6317 15.5448 25.8622 16.5619 26.9389C14.2103 29.1581 12.003 30.374 10.5026 30.374C10.178 30.3667 9.90394 30.3007 9.68754 30.1762ZM26.7976 24.5951C27.1366 27.393 26.7183 29.5683 25.7445 30.1469C25.5281 30.2788 25.2467 30.3374 24.9149 30.3374C23.4218 30.3374 21.2073 29.1289 18.8557 26.9242C19.8656 25.8476 20.8755 24.6244 21.8348 23.2694C23.465 23.0936 25.0087 22.8226 26.4225 22.4637C26.5884 23.2035 26.7183 23.9139 26.7976 24.5951ZM29.5748 19.7098C28.9544 19.9808 28.2764 20.2225 27.5767 20.4495C27.1655 19.014 26.6245 17.5198 25.9537 15.989C26.6173 14.4655 27.1511 12.9787 27.555 11.5505C28.2691 11.7775 28.9472 12.0265 29.582 12.2975C32.1355 13.4035 33.7874 14.8537 33.7874 16.0037C33.7801 17.1536 32.1283 18.6111 29.5748 19.7098Z" fill="white"/>
<path d="M20.9837 16.0037C20.9837 16.8915 20.6364 17.7428 20.0181 18.3706C19.3999 18.9983 18.5614 19.3509 17.6872 19.3509C16.8129 19.3509 15.9744 18.9983 15.3562 18.3706C14.738 17.7428 14.3907 16.8915 14.3907 16.0037C14.3907 15.116 14.738 14.2646 15.3562 13.6369C15.9744 13.0091 16.8129 12.6565 17.6872 12.6565C18.5614 12.6565 19.3999 13.0091 20.0181 13.6369C20.6364 14.2646 20.9837 15.116 20.9837 16.0037Z" fill="white"/>
<path d="M45.9555 17.5845H43.1528V23.2459H40.6383V8.55249H45.7269C47.3966 8.55249 48.6854 8.93261 49.5931 9.69285C50.5008 10.4531 50.9547 11.5531 50.9547 12.9928C50.9547 13.9751 50.7195 14.7992 50.2491 15.4653C49.7852 16.1246 49.1359 16.6325 48.3011 16.9891L51.551 23.1147V23.2459H48.8576L45.9555 17.5845ZM43.1528 15.5359H45.7369C46.585 15.5359 47.2476 15.3206 47.7246 14.89C48.2017 14.4527 48.4402 13.8573 48.4402 13.1038C48.4402 12.3167 48.2182 11.7078 47.7743 11.2772C47.337 10.8467 46.681 10.6246 45.8064 10.6112H43.1528V15.5359Z" fill="white"/>
<path d="M58.4147 23.4478C56.8841 23.4478 55.6418 22.9601 54.6877 21.9845C53.7402 21.0023 53.2664 19.6971 53.2664 18.069V17.7662C53.2664 16.6763 53.4718 15.7042 53.8826 14.8497C54.3 13.9886 54.8831 13.3192 55.6318 12.8415C56.3806 12.3638 57.2154 12.125 58.1364 12.125C59.6007 12.125 60.7304 12.5993 61.5255 13.5479C62.3272 14.4965 62.7281 15.8387 62.7281 17.5745V18.5635H55.7014C55.7743 19.465 56.0691 20.1781 56.586 20.7029C57.1094 21.2277 57.7654 21.49 58.5538 21.49C59.6603 21.49 60.5614 21.0359 61.2572 20.1277L62.5591 21.3891C62.1285 22.0417 61.552 22.5497 60.8298 22.913C60.1142 23.2695 59.3092 23.4478 58.4147 23.4478ZM58.1265 14.0929C57.4639 14.0929 56.9272 14.3283 56.5164 14.7993C56.1122 15.2702 55.8538 15.9262 55.7412 16.7672H60.3428V16.5855C60.2898 15.7647 60.0744 15.1458 59.6968 14.7286C59.3191 14.3048 58.7957 14.0929 58.1265 14.0929Z" fill="white"/>
<path d="M71.5994 23.246C71.4934 23.0374 71.4007 22.6977 71.3211 22.2267C70.5526 23.0408 69.6117 23.4478 68.4985 23.4478C67.4185 23.4478 66.5373 23.135 65.8548 22.5093C65.1724 21.8836 64.8311 21.1099 64.8311 20.1882C64.8311 19.0243 65.2552 18.1329 66.1033 17.5139C66.958 16.8883 68.1772 16.5754 69.7608 16.5754H71.2416V15.8589C71.2416 15.2938 71.0859 14.843 70.7745 14.5066C70.4631 14.1635 69.9893 13.992 69.3533 13.992C68.8033 13.992 68.3528 14.1332 68.0016 14.4158C67.6504 14.6916 67.4749 15.0448 67.4749 15.4754H65.0597C65.0597 14.8767 65.2552 14.3182 65.6461 13.8002C66.037 13.2754 66.5671 12.8651 67.2363 12.569C67.9122 12.273 68.6642 12.125 69.4924 12.125C70.7513 12.125 71.7551 12.4479 72.5039 13.0938C73.2526 13.7329 73.6369 14.6345 73.6567 15.7984V20.7231C73.6567 21.7053 73.7926 22.4891 74.0642 23.0744V23.246H71.5994ZM68.9458 21.48C69.4228 21.48 69.8701 21.3622 70.2875 21.1267C70.7116 20.8913 71.0296 20.5751 71.2416 20.1781V18.1194H69.9397C69.0452 18.1194 68.3726 18.2775 67.9221 18.5937C67.4715 18.9099 67.2463 19.3573 67.2463 19.9359C67.2463 20.4069 67.3987 20.7836 67.7034 21.0662C68.0149 21.342 68.429 21.48 68.9458 21.48Z" fill="white"/>
<path d="M81.1764 21.49C81.7793 21.49 82.2796 21.3118 82.6771 20.9552C83.0747 20.5986 83.2867 20.1579 83.3132 19.6332H85.5892C85.5627 20.3127 85.354 20.9485 84.963 21.5405C84.5721 22.1258 84.042 22.59 83.3728 22.9331C82.7036 23.2763 81.9814 23.4478 81.2062 23.4478C79.7021 23.4478 78.5095 22.9533 77.6282 21.9644C76.747 20.9754 76.3064 19.6096 76.3064 17.8671V17.6149C76.3064 15.9531 76.7437 14.6244 77.6183 13.6287C78.4929 12.6262 79.6856 12.125 81.1963 12.125C82.475 12.125 83.5153 12.5051 84.317 13.2654C85.1254 14.0189 85.5494 15.0112 85.5892 16.2424H83.3132C83.2867 15.6167 83.0747 15.102 82.6771 14.6984C82.2862 14.2947 81.786 14.0929 81.1764 14.0929C80.3945 14.0929 79.7916 14.3822 79.3675 14.9608C78.9435 15.5326 78.7281 16.4039 78.7215 17.5745V17.9681C78.7215 19.1521 78.9302 20.0368 79.3476 20.6222C79.7717 21.2007 80.3813 21.49 81.1764 21.49Z" fill="white"/>
<path d="M91.0118 9.67261V12.3267H92.9101V14.1432H91.0118V20.2386C91.0118 20.6557 91.0913 20.9584 91.2503 21.1468C91.4159 21.3285 91.7075 21.4193 92.1249 21.4193C92.4032 21.4193 92.6848 21.3856 92.9697 21.3184V23.2156C92.4198 23.3703 91.8897 23.4477 91.3795 23.4477C89.5243 23.4477 88.5966 22.4083 88.5966 20.3294V14.1432H86.8275V12.3267H88.5966V9.67261H91.0118Z" fill="white"/>
</svg>
