<svg width="134" height="37" viewBox="0 0 134 37" fill="none" xmlns="http://www.w3.org/2000/svg">
<path d="M5.38379 21.5416C5.38379 21.5416 4.70536 18.1496 8.29346 14.0416C11.8819 9.93382 14.5741 8.44007 17.4819 7.66198C17.4819 7.66198 17.4794 7.66348 17.4768 7.66498C17.4805 7.664 17.4842 7.66296 17.4878 7.66198C17.4878 7.66198 15.2037 9.00035 15.2037 11.0229C15.2037 11.61 15.2967 12.0134 15.4256 12.2828C15.5967 12.6408 15.8676 12.7626 16.1108 12.7637C16.3158 12.7649 16.4357 12.6802 16.695 12.5789V23.5329C16.695 23.5329 16.7231 23.7095 16.8807 23.9188C17.1076 24.2197 17.4643 24.587 18.1344 24.5907C19.2774 24.5833 20.7152 23.2843 20.7152 23.2843V14.4151C20.7152 13.5128 20.0733 12.4235 19.3931 12.0498C19.3931 12.0498 19.4858 12.044 19.6358 12.044C20.0849 12.0439 21.0483 12.0956 21.5851 12.5082C21.7343 12.3343 24.141 9.59455 28.4236 8.75149C28.4236 8.75149 28.4229 8.75234 28.4216 8.7539C28.4255 8.75312 28.4293 8.75227 28.4333 8.75149C28.4333 8.75149 26.0645 11.5575 25.3221 12.9491C25.1901 12.957 25.1709 15.5891 25.1929 18.2192C25.2142 20.758 25.2741 23.2954 25.3089 23.471C25.3089 23.471 25.5616 23.8489 26.2052 23.8522C26.9312 23.8559 28.1545 23.3828 30.0725 21.3546L30.0725 21.3546L30.0725 21.3546C30.0725 21.3546 30.022 21.4701 29.9202 21.6747C29.3705 22.7796 27.3281 26.4837 23.7003 28.6366L23.7001 28.6365C23.7 28.6365 23.6998 28.6366 23.6998 28.6366L21.3467 26.6345L21.2866 26.584L18.7202 29.3216C18.7202 29.3216 18.7187 29.3215 18.7163 29.3212L18.716 29.3216C18.716 29.3216 12.8653 28.8237 10.4216 25.2762C10.4216 25.2762 10.4262 25.2779 10.4331 25.2804C10.4321 25.279 10.4311 25.2776 10.4301 25.2762C10.4301 25.2762 10.8001 25.4211 11.2178 25.429C11.7071 25.438 12.221 25.2581 12.221 24.4356V16.0956C12.221 15.6697 11.9295 15.1919 11.2898 15.1938C10.7144 15.1953 9.88828 15.5848 8.76031 16.7491C6.37845 19.2074 5.3893 21.5416 5.3893 21.5416C5.3893 21.5416 5.38865 21.5384 5.38761 21.5327C5.38528 21.5382 5.38379 21.5416 5.38379 21.5416ZM18.3809 35.6812C22.9448 35.6812 27.2356 33.8931 30.4627 30.6465C33.6899 27.3998 35.4671 23.0832 35.4671 18.4918C35.4671 13.9003 33.6899 9.58372 30.4627 6.33705C27.2356 3.09043 22.9448 1.30241 18.3809 1.30241C13.817 1.30241 9.52628 3.09043 6.29908 6.33705C3.07195 9.58372 1.29466 13.9003 1.29466 18.4918C1.29466 23.0832 3.07195 27.3998 6.29908 30.6465C9.52628 33.8931 13.817 35.6812 18.3809 35.6812Z" fill="white"/>
<path d="M18.3809 0.511164C28.2518 0.511164 36.2537 8.56142 36.2537 18.4919C36.2537 28.4223 28.2518 36.4726 18.3809 36.4726C8.51004 36.4726 0.508093 28.4223 0.508093 18.4919C0.508093 8.56142 8.51004 0.511164 18.3809 0.511164ZM18.3809 36.9838C23.2907 36.9838 27.9065 35.0603 31.3782 31.5676C34.8499 28.075 36.7618 23.4313 36.7618 18.4919C36.7618 13.5525 34.8499 8.90878 31.3782 5.41611C27.9065 1.92344 23.2907 3.14715e-06 18.3809 3.14715e-06C13.4711 3.14715e-06 8.85532 1.92344 5.38361 5.41611C1.9119 8.90878 0 13.5525 0 18.4919C0 23.4313 1.9119 28.075 5.38361 31.5676C8.85532 35.0603 13.4711 36.9838 18.3809 36.9838Z" fill="white"/>
<path d="M126.021 20.9602V13.066H123.051V23.2931H133.011V20.9602H126.021Z" fill="white"/>
<path d="M89.817 30.2966H90.9589H92.0349C92.0898 30.8849 91.9175 31.1822 91.4394 31.2283C90.9654 31.2739 90.4885 31.3127 90.0127 31.3138C88.0358 31.3187 87.8239 31.0858 87.9437 29.0995C87.9459 29.0625 87.9469 29.0255 87.9507 28.9888C88.0247 28.2481 88.2959 27.9679 89.0338 27.9335C89.6025 27.9071 90.1731 27.9236 90.7429 27.9188C91.3362 27.9139 91.9022 27.9563 92.0466 28.6549H93.5039C93.7093 27.482 93.3272 26.8435 92.2074 26.7774C90.7655 26.6923 89.3113 26.7055 87.8686 26.787C86.8989 26.8418 86.4009 27.4168 86.3443 28.3722C86.2953 29.2004 86.2978 30.0359 86.3435 30.8645C86.3922 31.7481 86.8028 32.1897 87.6618 32.4107C87.9787 32.4923 88.3006 32.554 88.6203 32.6249H91.4913C91.7222 32.5756 91.9526 32.5235 92.1841 32.4774C92.8042 32.3541 93.4137 32.1532 93.5384 31.4463C93.6614 30.749 93.6556 30.0286 93.7091 29.2785H89.817V30.2966Z" fill="white"/>
<path d="M78.399 23.2491V13.0961H75.4811V20.8498C73.3968 18.1347 71.4229 15.5638 69.4921 13.0489H64.9207V23.2621H67.8258V15.6686L67.9612 15.6342C69.9492 18.1898 71.9372 20.7453 73.8849 23.2491H78.399Z" fill="white"/>
<path d="M83.6527 18.1796V15.2553C85.0007 15.2553 86.3161 15.2551 87.6316 15.2556C87.8151 15.2557 87.9986 15.261 88.1821 15.2622C89.8165 15.2733 89.9879 15.7533 89.8237 17.3706C89.7702 17.8969 89.3739 18.1597 88.9065 18.1677C87.1694 18.1974 85.4315 18.1796 83.6527 18.1796ZM89.8854 21.8907C89.9248 22.3421 89.9459 22.7951 89.9759 23.2572H92.8902C92.8902 22.6175 92.9144 22.0283 92.8852 21.442C92.821 20.1521 92.6324 19.5828 91.3835 19.3649C91.3182 19.3535 91.2605 19.2967 91.1068 19.2073C92.3622 18.9261 92.812 18.0731 92.8715 16.963C92.901 16.412 92.8909 15.8502 92.8181 15.3042C92.6409 13.9766 92.1563 13.4519 90.8568 13.2062C90.2103 13.0839 89.5444 13.0185 88.8865 13.0128C86.3668 12.9909 83.8469 13.0029 81.327 13.0055C81.1305 13.0057 80.934 13.03 80.7036 13.0455V23.253H83.6337V20.4368C84.3006 20.4368 84.9046 20.4245 85.5078 20.4396C86.5728 20.4663 87.6439 20.4492 88.7 20.565C89.5648 20.6599 89.8088 21.0145 89.8854 21.8907" fill="white"/>
<path d="M97.9606 19.1407H105.556V17.0783H97.9482V15.2359H105.993V13.0677H94.9735V23.2597H106.128V21.0164H97.9606V19.1407Z" fill="white"/>
<path d="M62.7231 13.3596C62.7235 13.2576 62.6609 13.1553 62.6296 13.0588H59.7209C59.7209 14.8695 59.7267 16.6253 59.717 18.3811C59.7142 18.8605 59.6828 19.3415 59.6317 19.8182C59.5583 20.5026 59.1291 20.9334 58.482 20.9662C57.1461 21.034 55.8005 21.0835 54.4684 20.9958C53.3954 20.9252 53.0469 20.4407 53.0346 19.341C53.0136 17.4528 53.0232 15.5641 53.0139 13.6757C53.0129 13.4652 52.9713 13.2548 52.9487 13.0457H50.0422C50.0422 15.5837 49.9553 18.047 50.072 20.5006C50.1532 22.206 50.8562 22.878 52.5665 23.1661C55.0491 23.5843 57.5572 23.567 60.0399 23.1956C61.9357 22.912 62.5791 22.2039 62.6628 20.2995C62.7643 17.9898 62.714 15.6732 62.7231 13.3596Z" fill="white"/>
<path d="M112.185 19.2889C112.893 17.8898 113.579 16.5323 114.34 15.0272C115.101 16.5151 115.789 17.8618 116.518 19.2889H112.185ZM112.494 13.0337C110.666 16.4258 108.842 19.8084 106.976 23.269H110.163C110.483 22.6561 110.787 22.072 111.085 21.502H117.637C117.953 22.1055 118.261 22.6907 118.561 23.2625H121.782C119.883 19.7627 118.048 16.3797 116.233 13.0337H112.494Z" fill="white"/>
<path d="M83.2409 30.9584C83.1956 30.9692 83.1502 30.98 83.1048 30.9909C81.9848 29.5381 80.8647 28.0855 79.7899 26.6917H77.206V32.4607H78.7996V28.2517C78.8539 28.2323 78.908 28.213 78.9621 28.1937C80.0884 29.6337 81.2148 31.0735 82.3064 32.4694H84.8867V26.7048H83.2409V30.9584Z" fill="white"/>
<path d="M104 30.9613C103.956 30.9728 103.913 30.9843 103.869 30.9958C102.772 29.5724 101.676 28.1488 100.614 26.77H98.0405V32.4491H99.6722V28.0943C100.89 29.6578 101.998 31.0814 103.083 32.4745H105.624V26.788H104V30.9613Z" fill="white"/>
<path d="M71.3981 30.1522H75.7241V28.9616H71.3983V27.8899H75.9613V26.6871H69.7497V32.4562H76.0774V31.2299H71.3981V30.1522Z" fill="white"/>
<path d="M108.823 30.1501H113.069V28.9903H108.839V27.9199H113.319V26.7757H107.153V32.4521H113.419V31.2354H108.823V30.1501Z" fill="white"/>
<path d="M94.988 32.4677H96.5672V26.781H94.988V32.4677Z" fill="white"/>
</svg>
