<svg width="44" height="44" viewBox="0 0 44 44" fill="none" xmlns="http://www.w3.org/2000/svg">
<path d="M22 12.8777L7.83667 20.0069L22 27.1362L36.1634 20.0069L22 12.8777Z" fill="#FCB1E6"/>
<path d="M22 27.1135V44L36.1634 36.8707V20.0068L22 27.1135Z" fill="#FC7BD6"/>
<path d="M32.6221 21.7838V38.6532L36.1634 36.8707V20.0068L32.6221 21.7838Z" fill="#FC65CF"/>
<path d="M7.83667 20.0068L22 27.1135V44L7.83667 36.8707V20.0068Z" fill="#FC47C7"/>
<path d="M22.0001 37.2224L30.4746 32.9566L22.0001 28.6909L13.5255 32.9566L22.0001 37.2224Z" fill="#FCB1E6"/>
<path d="M22.0001 28.7044V18.6005L13.5255 22.8662V32.9566L22.0001 28.7044Z" fill="#FC7BD6"/>
<path d="M30.4747 32.9566L22.0001 28.7044V18.6005L30.4747 22.8662V32.9566Z" fill="#FC47C7"/>
<path d="M22 0L13.5114 4.21077L22 8.57012L30.4886 4.21077L22 0Z" fill="#E0E8FF"/>
<path d="M22 8.55607V18.6004L30.4886 14.3897V4.21082L22 8.55607Z" fill="#B3C6FF"/>
<path d="M26.9474 6.02358V16.1462L30.4886 14.3896V4.21082L26.9474 6.02358Z" fill="#A3BAFF"/>
<path d="M13.5114 4.21082L22 8.55607V18.6004L13.5114 14.3897V4.21082Z" fill="#96B1FF"/>
</svg>
