<svg width="44" height="44" viewBox="0 0 44 44" fill="none" xmlns="http://www.w3.org/2000/svg">
<path d="M23.4167 11.375H14.2084V27.6667C14.248 27.6907 14.2452 27.6893 14.2849 27.7134L23.0201 23.3458C23.2609 23.2183 23.4167 22.9775 23.4167 22.7083V11.375Z" fill="#FEA832"/>
<path d="M5 11.375V22.7083C5 22.9775 5.15583 23.2183 5.39667 23.3458L14.1318 27.7134C14.1715 27.6893 14.1687 27.6907 14.2083 27.6667V11.375H5Z" fill="#FCBF29"/>
<path d="M5 11.375L14.2083 6.41663L23.4167 11.375L14.2083 16.3333L5 11.375Z" fill="#FEDB41"/>
<path d="M27.6667 21.2449H18.4584V37.5366C18.498 37.5606 18.4952 37.5592 18.5349 37.5833L27.2701 33.2157C27.5109 33.0882 27.6667 32.8474 27.6667 32.5782V21.2449Z" fill="#11AA4F"/>
<path d="M9.25 21.2449V32.5782C9.25 32.8474 9.40583 33.0882 9.64667 33.2157L18.3818 37.5833C18.4215 37.5592 18.4187 37.5606 18.4583 37.5366V21.2449H9.25Z" fill="#10BB67"/>
<path d="M12.7916 33.3333C12.6868 33.3333 12.582 33.3092 12.48 33.2611L11.8425 32.9494C11.137 32.5967 10.6666 31.8982 10.6666 31.2083C10.6666 30.8173 10.984 30.5 11.375 30.5C11.766 30.5 12.0833 30.8173 12.0833 31.2083C12.0833 31.3018 12.2009 31.5441 12.47 31.6801L13.1019 31.9889C13.4532 32.1603 13.5991 32.5839 13.4263 32.9366C13.3045 33.186 13.0537 33.3333 12.7916 33.3333V33.3333Z" fill="#11AA4F"/>
<path d="M11.375 29.0833C11.7662 29.0833 12.0833 28.7662 12.0833 28.375C12.0833 27.9838 11.7662 27.6666 11.375 27.6666C10.9838 27.6666 10.6666 27.9838 10.6666 28.375C10.6666 28.7662 10.9838 29.0833 11.375 29.0833Z" fill="#11AA4F"/>
<path d="M9.25 21.2916L18.4583 16.3333L27.6667 21.2916L18.4583 26.2499L9.25 21.2916Z" fill="#32D736"/>
<path d="M39 17.0416H29.7916V33.3333C29.8313 33.3574 29.8285 33.356 29.8681 33.3801L38.6033 29.0125C38.8441 28.885 39 28.6441 39 28.375V17.0416Z" fill="#A4D9F5"/>
<path d="M20.5834 17.0416V28.375C20.5834 28.6441 20.7392 28.885 20.98 29.0125L29.7152 33.3801C29.7549 33.356 29.7521 33.3574 29.7917 33.3333V17.0416H20.5834Z" fill="#B7E0F6"/>
<path d="M20.5834 17.0416L29.7917 12.0833L39.0001 17.0416L29.7917 21.9999L20.5834 17.0416Z" fill="#CAE8F9"/>
</svg>
