<svg width="44" height="44" viewBox="0 0 44 44" fill="none" xmlns="http://www.w3.org/2000/svg">
<path d="M14.0312 27.9766L6.79788 26.3521L6.0625 23.9922L14.0312 20.0078L22 23.9922L21.1697 26.3995L14.0312 27.9766Z" fill="#1DE8F1"/>
<path d="M14.0312 39L6.0625 35.0156V23.9922L14.0312 27.9766L16.0234 30.9087V36.1372L14.0312 39Z" fill="#00D0FF"/>
<path d="M22 35.0156L14.0312 39V27.9766L22 23.9922V35.0156Z" fill="#00BBFF"/>
<path d="M29.9688 27.9766L22.7354 26.3521L22 23.9922L29.9688 20.0078L37.9375 23.9922L37.1072 26.3995L29.9688 27.9766Z" fill="#FF0B69"/>
<path d="M29.9688 39L22 35.0156V23.9922L29.9688 27.9766L31.9609 30.9087V36.1372L29.9688 39Z" fill="#DD025B"/>
<path d="M37.9375 35.0156L29.9688 39V27.9766L37.9375 23.9922V35.0156Z" fill="#9E0A48"/>
<path d="M22 12.9688L14.7666 11.3443L14.0312 8.98438L22 5L29.9688 8.98438L29.1385 11.3917L22 12.9688Z" fill="#7986E8"/>
<path d="M22 23.9922L14.0312 20.0078V8.98438L22 12.9688L23.9922 15.8344V21.1293L22 23.9922Z" fill="#6E77E5"/>
<path d="M29.9688 20.0078L22 23.9922V12.9688L29.9688 8.98438V20.0078Z" fill="#4C5CE1"/>
</svg>
