<svg width="412" height="53" viewBox="0 0 412 53" fill="none" xmlns="http://www.w3.org/2000/svg">
<path fill-rule="evenodd" clip-rule="evenodd" d="M24.2659 26.4494C24.2659 23.4704 26.6458 21.0721 29.602 21.0721C32.5583 21.0721 34.938 23.4704 34.938 26.4494C34.938 29.4285 32.5581 31.8266 29.602 31.8266C26.646 31.8266 24.2659 29.4283 24.2659 26.4494Z" fill="white"/>
<path fill-rule="evenodd" clip-rule="evenodd" d="M29.6021 15.5162C36.7665 15.5162 43.4221 16.5522 48.4404 18.2931C54.4867 20.3907 58.2043 23.5703 58.2043 26.4494C58.2043 29.4506 54.2644 32.8272 47.7715 34.9951C42.8626 36.6351 36.4029 37.4896 29.6021 37.4896C22.6293 37.4896 16.0265 36.6866 11.0623 34.9772C4.7818 32.8139 1 29.3924 1 26.4494C1 23.5937 4.54951 20.4387 10.5109 18.3443C15.5478 16.5757 22.3678 15.5162 29.6022 15.5162H29.6021Z" stroke="white" stroke-width="1.6627" stroke-linecap="round" stroke-linejoin="round"/>
<path fill-rule="evenodd" clip-rule="evenodd" d="M20.1574 21.0143C23.7365 14.7603 27.9519 9.46776 31.9555 5.95678C36.7792 1.72652 41.3698 0.069855 43.8446 1.50791C46.4238 3.0068 47.3591 8.13365 45.979 14.8845C44.9367 19.9886 42.4441 26.0547 39.0464 31.9916C35.5629 38.0786 31.5742 43.4413 27.6252 46.9197C22.628 51.3216 17.7968 52.9147 15.2668 51.4443C12.812 50.0188 11.8731 45.3433 13.0509 39.0929C14.0459 33.8118 16.5431 27.3297 20.1562 21.0143H20.1574Z" stroke="white" stroke-width="1.6627" stroke-linecap="round" stroke-linejoin="round"/>
<path fill-rule="evenodd" clip-rule="evenodd" d="M20.1662 32.0078C16.5769 25.7607 14.1331 19.4361 13.1141 14.1873C11.8862 7.86333 12.7544 3.02923 15.2269 1.58574C17.8036 0.0826368 22.6785 1.82633 27.7932 6.40279C31.6603 9.86285 35.6311 15.0675 39.0386 20.9988C42.5321 27.0798 45.1504 33.2395 46.1691 38.4254C47.4578 44.9868 46.4137 50 43.8872 51.4745C41.4346 52.9051 36.9467 51.3905 32.1613 47.2405C28.1179 43.7356 23.7921 38.317 20.1673 32.0076L20.1662 32.0078Z" stroke="white" stroke-width="1.6627" stroke-linecap="round" stroke-linejoin="round"/>
<path fill-rule="evenodd" clip-rule="evenodd" d="M88.834 40.188L82.2935 30.2305C85.5991 29.921 88.5776 27.5229 88.5776 23.1135C88.5776 18.6268 85.4179 15.7552 80.9855 15.7552H71.2515V40.1694H74.2669V30.4687H79.0985L85.2736 40.1694L88.834 40.188ZM80.6247 27.8153H74.2684V18.4813H80.6247C83.4957 18.4813 85.4563 20.3843 85.4563 23.1305C85.4563 25.8767 83.4942 27.8185 80.6247 27.8185V27.8153ZM100.059 40.6258C102.93 40.6258 105.29 39.6743 107.034 37.9183L105.726 36.1236C104.344 37.5516 102.311 38.3562 100.314 38.3562C96.5367 38.3562 94.2107 35.5743 93.9927 32.2449H108.194V31.5486C108.194 26.2419 105.07 22.0677 99.7501 22.0677C94.7373 22.0677 91.1063 26.2048 91.1063 31.3289C91.1063 36.857 94.8479 40.6119 100.042 40.6119L100.059 40.6258ZM105.509 30.2289H93.9942C94.14 27.5214 95.9901 24.3497 99.7332 24.3497C103.73 24.3497 105.472 27.608 105.509 30.2289ZM126.288 40.1864V28.0335C126.288 23.751 123.217 22.0661 119.496 22.0661C116.625 22.0661 114.374 23.0176 112.486 24.9949L113.757 26.8979C115.318 25.2146 117.027 24.4456 119.134 24.4456C121.676 24.4456 123.566 25.7994 123.566 28.1789V31.363C122.149 29.7152 120.151 28.9463 117.753 28.9463C114.775 28.9463 111.612 30.8137 111.612 34.7667C111.612 38.6099 114.772 40.6243 117.753 40.6243C120.115 40.6243 122.114 39.7826 123.566 38.172V40.1834L126.288 40.1864ZM118.734 38.6485C116.192 38.6485 114.411 37.0395 114.411 34.8054C114.411 32.5357 116.192 30.9251 118.734 30.9251C120.66 30.9251 122.511 31.6569 123.566 33.1221V36.4531C122.513 37.9167 120.66 38.6501 118.734 38.6501V38.6485ZM139.461 40.6258C142.658 40.6258 144.546 39.3076 145.891 37.5516L144.075 35.8683C142.913 37.4418 141.423 38.1891 139.622 38.1891C135.881 38.1891 133.558 35.2603 133.558 31.3444C133.558 27.4285 135.882 24.5369 139.622 24.5369C141.439 24.5369 142.928 25.2331 144.075 26.8577L145.891 25.1743C144.548 23.4168 142.658 22.1002 139.461 22.1002C134.23 22.1002 130.707 26.1274 130.707 31.3614C130.707 36.6326 134.23 40.6444 139.461 40.6444V40.6258ZM154.139 40.6258C155.736 40.6258 156.718 40.1493 157.409 39.4917L156.611 37.4418C156.247 37.844 155.536 38.1736 154.758 38.1736C153.56 38.1736 152.977 37.2221 152.977 35.9039V24.9206H156.539V22.507H152.977V17.6753H150.251V22.507H147.345V24.9237H150.251V36.4918C150.251 39.1282 151.559 40.6289 154.139 40.6289V40.6258Z" fill="white"/>
<path d="M219.117 27.45H209.617V36.7H207.367V27.45H197.867V25.3H207.367V16H209.617V25.3H219.117V27.45Z" fill="white"/>
<path d="M263.468 30.0364C263.468 30.0364 262.679 26.0941 266.85 21.3197C271.02 16.5454 274.149 14.8094 277.529 13.905C277.529 13.905 277.526 13.9068 277.523 13.9085C277.527 13.9074 277.531 13.9062 277.536 13.905C277.536 13.905 274.881 15.4605 274.881 17.8112C274.881 18.4935 274.989 18.9624 275.139 19.2756C275.338 19.6916 275.652 19.8331 275.935 19.8345C276.173 19.8358 276.313 19.7373 276.614 19.6196V32.3508C276.614 32.3508 276.647 32.556 276.83 32.7992C277.094 33.149 277.508 33.5758 278.287 33.5801C279.616 33.5716 281.286 32.0619 281.286 32.0619V21.7537C281.286 20.705 280.54 19.4391 279.75 19.0047C279.75 19.0047 279.858 18.9979 280.032 18.998C280.554 18.9978 281.674 19.0579 282.298 19.5374C282.471 19.3354 285.268 16.1511 290.246 15.1713C290.246 15.1713 290.245 15.1723 290.243 15.1741C290.248 15.1732 290.252 15.1722 290.257 15.1713C290.257 15.1713 287.504 18.4326 286.641 20.0499C286.487 20.059 286.465 23.1182 286.491 26.175C286.515 29.1257 286.585 32.0747 286.625 32.2788C286.625 32.2788 286.919 32.718 287.667 32.7218C288.511 32.7262 289.933 32.1763 292.162 29.819L292.162 29.8191L292.162 29.819C292.162 29.819 292.103 29.9533 291.985 30.1911C291.346 31.4753 288.972 35.7803 284.756 38.2825L284.756 38.2823C284.756 38.2823 284.755 38.2824 284.755 38.2825L282.02 35.9555L281.951 35.8968L278.968 39.0786C278.968 39.0786 278.966 39.0784 278.963 39.0781L278.963 39.0786C278.963 39.0786 272.163 38.4999 269.323 34.3769C269.323 34.3769 269.328 34.3788 269.336 34.3818C269.335 34.3801 269.334 34.3785 269.333 34.3769C269.333 34.3769 269.763 34.5453 270.248 34.5544C270.817 34.5649 271.414 34.3559 271.414 33.3998V23.7069C271.414 23.2119 271.076 22.6566 270.332 22.6587C269.663 22.6605 268.703 23.1132 267.392 24.4664C264.624 27.3235 263.474 30.0364 263.474 30.0364C263.474 30.0364 263.474 30.0327 263.472 30.0261C263.47 30.0324 263.468 30.0364 263.468 30.0364ZM278.574 46.4698C283.878 46.4698 288.865 44.3918 292.615 40.6184C296.366 36.845 298.432 31.8281 298.432 26.4918C298.432 21.1555 296.366 16.1385 292.615 12.3652C288.865 8.59183 283.878 6.51374 278.574 6.51374C273.269 6.51374 268.282 8.59183 264.532 12.3652C260.781 16.1385 258.715 21.1555 258.715 26.4918C258.715 31.8281 260.781 36.845 264.532 40.6184C268.282 44.3918 273.269 46.4698 278.574 46.4698Z" fill="white"/>
<path d="M278.573 5.59406C290.046 5.59406 299.346 14.9503 299.346 26.4918C299.346 38.0333 290.046 47.3896 278.573 47.3896C267.101 47.3896 257.801 38.0333 257.801 26.4918C257.801 14.9503 267.101 5.59406 278.573 5.59406ZM278.573 47.9838C284.28 47.9838 289.644 45.7482 293.679 41.6889C297.714 37.6296 299.936 32.2326 299.936 26.4918C299.936 20.7512 297.714 15.3541 293.679 11.2948C289.644 7.23546 284.28 4.99997 278.573 4.99997C272.867 4.99997 267.503 7.23546 263.468 11.2948C259.433 15.3541 257.211 20.7512 257.211 26.4918C257.211 32.2326 259.433 37.6296 263.468 41.6889C267.503 45.7482 272.867 47.9838 278.573 47.9838Z" fill="white"/>
<path d="M403.676 29.3606V20.1857H400.225V32.072H411.8V29.3606H403.676Z" fill="white"/>
<path d="M361.599 40.2117H362.926H364.177C364.24 40.8954 364.04 41.2409 363.485 41.2945C362.934 41.3476 362.379 41.3926 361.826 41.3939C359.529 41.3996 359.282 41.129 359.422 38.8204C359.424 38.7774 359.425 38.7344 359.43 38.6917C359.516 37.8309 359.831 37.5052 360.689 37.4652C361.35 37.4345 362.013 37.4537 362.675 37.4482C363.365 37.4425 364.022 37.4917 364.19 38.3037H365.884C366.123 36.9405 365.679 36.1983 364.377 36.1215C362.701 36.0226 361.011 36.038 359.334 36.1327C358.207 36.1964 357.629 36.8647 357.563 37.9751C357.506 38.9376 357.509 39.9087 357.562 40.8718C357.619 41.8986 358.096 42.4119 359.094 42.6688C359.462 42.7636 359.837 42.8353 360.208 42.9177H363.545C363.813 42.8604 364.081 42.7998 364.35 42.7463C365.071 42.6029 365.779 42.3695 365.924 41.5479C366.067 40.7375 366.06 39.9002 366.122 39.0284H361.599V40.2117Z" fill="white"/>
<path d="M348.329 32.0209V20.2208H344.937V29.2323C342.515 26.0767 340.221 23.0888 337.977 20.1659H332.664V32.036H336.04V23.2105L336.197 23.1706C338.508 26.1408 340.818 29.1109 343.082 32.0209H348.329Z" fill="white"/>
<path d="M354.435 26.1288V22.7302C356.001 22.7302 357.53 22.7299 359.059 22.7305C359.272 22.7307 359.485 22.7367 359.699 22.7382C361.598 22.7511 361.797 23.309 361.607 25.1886C361.545 25.8004 361.084 26.1057 360.541 26.115C358.522 26.1496 356.502 26.1288 354.435 26.1288ZM361.678 30.442C361.724 30.9666 361.749 31.4932 361.784 32.0303H365.171C365.171 31.2867 365.199 30.602 365.165 29.9205C365.09 28.4214 364.871 27.7597 363.42 27.5065C363.344 27.4932 363.277 27.4272 363.098 27.3233C364.557 26.9965 365.08 26.0051 365.149 24.7149C365.183 24.0745 365.172 23.4216 365.087 22.787C364.881 21.244 364.318 20.6342 362.807 20.3486C362.056 20.2065 361.282 20.1304 360.517 20.1238C357.589 20.0984 354.66 20.1124 351.732 20.1153C351.503 20.1156 351.275 20.1439 351.007 20.1618V32.0254H354.412V28.7523C355.188 28.7523 355.89 28.738 356.591 28.7555C357.828 28.7865 359.073 28.7666 360.301 28.9013C361.306 29.0116 361.589 29.4237 361.678 30.442" fill="white"/>
<path d="M371.064 27.2459H379.892V24.8489H371.049V22.7075H380.399V20.1876H367.592V32.0331H380.557V29.4259H371.064V27.2459Z" fill="white"/>
<path d="M330.109 20.5269C330.11 20.4084 330.037 20.2895 330.001 20.1773H326.62C326.62 22.2817 326.627 24.3224 326.616 26.3631C326.612 26.9202 326.576 27.4793 326.517 28.0333C326.431 28.8288 325.932 29.3295 325.18 29.3676C323.628 29.4463 322.064 29.5039 320.516 29.4019C319.268 29.3199 318.863 28.7569 318.849 27.4787C318.825 25.2842 318.836 23.0891 318.825 20.8943C318.824 20.6496 318.776 20.4051 318.749 20.1621H315.371C315.371 23.1118 315.27 25.9748 315.406 28.8264C315.5 30.8085 316.317 31.5895 318.305 31.9243C321.19 32.4104 324.105 32.3903 326.991 31.9586C329.194 31.629 329.942 30.806 330.039 28.5927C330.157 25.9083 330.099 23.2159 330.109 20.5269Z" fill="white"/>
<path d="M387.596 27.4182C388.418 25.7921 389.216 24.2144 390.101 22.4651C390.984 24.1944 391.784 25.7596 392.632 27.4182H387.596ZM387.955 20.1482C385.83 24.0906 383.71 28.022 381.542 32.0439H385.246C385.617 31.3316 385.971 30.6529 386.317 29.9904H393.932C394.3 30.6917 394.657 31.3719 395.007 32.0365H398.75C396.543 27.9688 394.41 24.037 392.301 20.1482H387.955Z" fill="white"/>
<path d="M353.956 40.9809C353.903 40.9934 353.85 41.0059 353.798 41.0186C352.496 39.3301 351.194 37.6418 349.945 36.0219H346.942V42.7269H348.794V37.835C348.857 37.8125 348.92 37.79 348.983 37.7676C350.292 39.4412 351.601 41.1146 352.87 42.7369H355.869V36.0372H353.956V40.9809Z" fill="white"/>
<path d="M378.083 40.9843C378.032 40.9976 377.981 41.011 377.93 41.0243C376.656 39.3699 375.382 37.7155 374.147 36.1129H371.156V42.7134H373.053V37.6521C374.468 39.4692 375.756 41.1238 377.017 42.7429H379.97V36.1338H378.083V40.9843Z" fill="white"/>
<path d="M340.192 40.0438H345.22V38.6601H340.192V37.4145H345.495V36.0166H338.276V42.7217H345.63V41.2964H340.192V40.0438Z" fill="white"/>
<path d="M383.688 40.0414H388.623V38.6934H383.707V37.4494H388.913V36.1195H381.747V42.7168H389.029V41.3027H383.688V40.0414Z" fill="white"/>
<path d="M367.609 42.735H369.444V36.1257H367.609V42.735Z" fill="white"/>
</svg>
